<?xml version="1.0" standalone="no"?>
<!DOCTYPE svg PUBLIC "-//W3C//DTD SVG 20010904//EN"
 "http://www.w3.org/TR/2001/REC-SVG-20010904/DTD/svg10.dtd">
<svg version="1.0" xmlns="http://www.w3.org/2000/svg"
 width="512.000000pt" height="512.000000pt" viewBox="0 0 512.000000 512.000000"
 preserveAspectRatio="xMidYMid meet">
<metadata>
Created by potrace 1.14, written by Peter Selinger 2001-2017
</metadata>
<g transform="translate(0.000000,512.000000) scale(0.100000,-0.100000)"
fill="#000000" stroke="none">
<path d="M3489 4983 c-30 -8 -71 -24 -93 -37 -21 -12 -192 -176 -380 -364
l-341 -340 -55 9 c-73 13 -297 17 -390 8 -239 -23 -469 -88 -668 -188 -137
-69 -300 -176 -383 -251 -214 -194 -349 -369 -459 -595 -85 -174 -141 -344
-166 -500 -4 -27 -8 -52 -9 -55 -18 -62 -23 -391 -7 -486 5 -28 5 -60 1 -70
-4 -10 -103 -113 -219 -229 -255 -254 -275 -286 -274 -426 0 -77 4 -94 32
-152 84 -169 278 -245 453 -176 51 20 82 44 178 136 63 62 118 109 122 105 3
-4 32 -43 64 -87 88 -119 197 -234 318 -333 l68 -55 -109 -111 c-156 -159
-183 -207 -184 -330 -1 -213 181 -377 392 -355 116 13 144 32 378 263 118 116
214 212 216 213 1 1 32 -4 68 -12 96 -20 195 -28 343 -29 148 -1 243 7 355 29
14 3 36 7 49 10 177 33 442 146 621 263 98 65 98 65 199 153 323 283 533 649
610 1066 26 138 31 200 31 348 0 139 -6 200 -30 338 -7 37 -11 70 -9 72 2 2
185 185 406 407 344 345 406 411 428 460 115 251 -85 533 -358 504 -123 -13
-143 -28 -484 -368 -172 -172 -314 -310 -316 -307 -47 63 -154 183 -216 241
-85 81 -234 198 -251 198 -5 0 -10 4 -10 8 0 5 104 113 231 240 275 277 284
291 284 442 0 84 -3 102 -28 150 -78 156 -244 235 -408 193z"/>
</g>
</svg>
