<?xml version="1.0" standalone="no"?>
<!DOCTYPE svg PUBLIC "-//W3C//DTD SVG 20010904//EN"
 "http://www.w3.org/TR/2001/REC-SVG-20010904/DTD/svg10.dtd">
<svg version="1.0" xmlns="http://www.w3.org/2000/svg"
 width="512.000000pt" height="512.000000pt" viewBox="0 0 512.000000 512.000000"
 preserveAspectRatio="xMidYMid meet">
<metadata>
Created by potrace 1.14, written by Peter Selinger 2001-2017
</metadata>
<g transform="translate(0.000000,512.000000) scale(0.100000,-0.100000)"
fill="#000000" stroke="none">
<path d="M3514 4803 c-18 -3 -610 -592 -2480 -2467 -353 -355 -521 -530 -529
-552 -6 -18 -11 -68 -10 -111 0 -43 -4 -81 -10 -85 -6 -5 -6 -8 0 -8 7 0 10
-167 9 -482 -1 -374 2 -490 12 -515 14 -37 84 -105 111 -110 10 -1 30 -4 46
-5 15 -1 27 -7 27 -13 0 -5 4 -4 9 3 4 7 19 14 32 15 13 0 27 6 32 12 5 6 12
4 21 -8 12 -16 14 -16 20 -2 3 9 2 14 -3 11 -16 -10 -20 22 -5 34 11 10 14 9
14 -4 0 -9 4 -16 9 -16 4 0 7 12 5 26 -2 18 2 24 11 20 8 -3 16 5 19 20 4 13
13 24 22 24 8 0 13 4 10 8 -3 5 8 16 25 26 18 10 27 22 22 29 -4 7 1 6 10 -2
15 -12 17 -12 11 3 -3 9 -1 16 5 16 6 0 10 3 10 8 -4 25 2 33 22 27 12 -4 19
-3 16 2 -6 10 159 10 169 0 11 -10 -7 -28 -19 -19 -10 7 -82 9 -82 2 0 -7 -63
-5 -80 2 l-20 9 20 -17 c16 -14 17 -16 3 -11 -11 4 -17 2 -15 -6 1 -7 -3 -11
-10 -10 -8 2 -10 -4 -6 -14 5 -13 2 -15 -13 -10 -18 7 -18 6 -1 -7 16 -12 16
-14 2 -20 -9 -3 -14 -2 -11 2 2 4 -5 9 -17 9 -12 1 -17 -1 -12 -5 16 -11 16
-30 -1 -36 -12 -5 -14 -1 -9 17 5 20 5 20 -9 -3 -8 -14 -18 -24 -22 -22 -8 2
-9 -12 -5 -49 1 -8 5 -8 15 0 10 8 16 9 21 1 3 -5 1 -10 -4 -10 -6 0 -11 -5
-11 -11 0 -8 6 -7 17 2 15 12 16 12 10 -6 -6 -17 -4 -17 10 3 15 21 17 22 35
5 16 -15 18 -15 13 -1 -8 21 -36 32 -45 17 -5 -7 -10 -8 -14 -1 -8 13 20 36
33 27 6 -3 8 0 5 9 -4 9 0 14 10 12 19 -3 34 -16 18 -16 -7 0 -12 -5 -12 -10
0 -6 8 -5 20 2 11 7 16 14 10 16 -5 2 -3 11 6 19 8 9 13 22 10 29 -6 17 10 19
20 3 3 -6 1 -16 -5 -22 -6 -6 -11 -18 -11 -27 0 -8 8 -1 16 17 17 33 44 40 74
19 13 -10 13 -9 2 6 -9 11 -24 16 -43 14 -30 -3 -49 9 -27 17 10 3 10 7 0 20
-12 14 -11 16 7 14 15 -1 19 -6 15 -19 -5 -15 -1 -18 20 -14 14 2 27 1 29 -2
2 -4 2 -1 1 6 -2 6 1 12 7 12 5 0 9 7 7 16 -2 10 2 19 9 21 7 3 10 -5 7 -21
-2 -14 -6 -37 -8 -51 -3 -16 0 -23 7 -18 6 4 8 1 5 -8 -4 -10 1 -15 13 -15 18
0 18 1 0 21 -17 20 -18 61 0 50 5 -3 6 1 3 10 -5 11 -2 14 12 9 14 -4 16 -3 5
4 -8 6 -9 12 -3 16 6 3 14 1 17 -5 5 -7 12 -3 22 10 8 12 19 18 25 15 6 -4 6
0 -1 13 -6 11 -7 24 -3 28 4 5 2 5 -5 1 -7 -4 -10 -13 -6 -21 3 -8 0 -15 -7
-15 -6 0 -8 6 -4 13 6 10 4 10 -7 0 -15 -15 -29 -17 -29 -5 0 4 15 16 34 26
19 10 32 24 30 31 -3 7 2 15 11 19 9 3 13 10 10 16 -3 6 1 13 10 16 9 4 14 12
12 18 -3 7 1 20 9 31 10 14 14 15 14 4 0 -12 2 -12 10 1 8 13 10 12 10 -3 0
-10 5 -15 10 -12 6 4 7 12 3 18 -4 7 0 6 10 -2 14 -11 17 -11 17 0 0 11 2 11
10 -1 9 -13 10 -13 10 0 0 13 1 13 10 0 7 -11 10 -11 10 -2 0 10 3 10 14 0 8
-7 10 -16 5 -19 -19 -11 120 -138 144 -131 5 1 6 -2 3 -7 -3 -5 9 -8 27 -7 17
2 38 -2 46 -8 8 -6 12 -7 9 -1 -4 6 41 11 125 12 73 0 139 3 147 5 18 4 27
-15 9 -21 -7 -2 -9 1 -4 9 6 9 3 9 -14 1 -11 -7 -21 -9 -21 -7 0 3 -12 -6 -26
-21 -33 -33 -26 -39 10 -8 16 14 34 25 40 25 6 0 2 -7 -8 -15 -11 -8 -15 -15
-10 -15 6 0 15 5 21 11 12 12 33 4 33 -11 0 -5 -8 -7 -17 -3 -14 5 -15 3 -6
-7 6 -7 16 -9 22 -6 15 9 14 36 -1 36 -17 0 0 13 22 17 10 1 22 -2 25 -7 3 -6
-1 -10 -9 -10 -9 0 -16 -5 -16 -10 0 -7 7 -7 20 0 21 11 40 6 40 -10 0 -5 -8
-7 -17 -3 -14 5 -15 3 -6 -7 6 -7 16 -9 22 -6 18 11 13 34 -8 41 -20 6 -19 35
1 35 5 0 7 -4 4 -9 -3 -5 1 -11 9 -14 10 -4 12 -1 9 11 -4 10 -3 13 3 6 5 -7
89 -10 251 -10 184 1 246 -2 254 -11 7 -9 7 -13 0 -13 -6 0 -12 5 -14 12 -3 9
-6 9 -12 0 -4 -7 -2 -12 4 -12 6 0 8 -5 4 -11 -4 -8 -1 -8 14 0 12 6 19 17 16
24 -3 9 22 12 103 12 60 0 114 -4 121 -8 6 -5 12 -4 12 0 0 5 50 8 110 8 61 0
110 3 110 7 0 4 7 8 15 8 8 0 15 -4 15 -9 0 -4 18 -8 40 -7 22 1 44 0 48 -3
13 -10 13 -33 0 -28 -7 2 -12 9 -11 14 1 5 -7 9 -18 9 -17 0 -18 -2 -6 -11 13
-9 13 -13 1 -30 -17 -23 -18 -35 -2 -35 6 0 8 3 5 6 -3 4 -2 14 3 24 9 17 31
19 62 6 9 -4 22 -5 28 -1 6 4 19 1 28 -6 9 -7 14 -9 10 -5 -5 5 1 15 12 23 17
12 23 12 40 0 11 -8 17 -17 12 -21 -4 -5 9 2 30 13 23 14 39 18 43 11 3 -5 1
-10 -4 -10 -6 0 -11 -5 -11 -12 0 -6 8 -4 19 6 17 16 19 16 25 0 4 -9 9 -14
13 -11 3 4 1 12 -5 20 -11 13 -11 42 1 53 4 4 7 1 7 -6 0 -7 11 -1 25 14 26
28 58 38 35 11 -7 -8 -16 -13 -20 -10 -5 3 -6 -4 -3 -15 3 -11 9 -20 14 -20 5
0 6 6 3 13 -3 8 3 20 12 28 16 12 17 12 11 -4 -3 -9 -4 -24 -1 -32 4 -11 11
-8 30 13 23 27 23 27 24 5 0 -13 -5 -22 -12 -20 -6 1 -13 -7 -15 -18 -3 -18
-2 -18 5 -2 4 10 12 18 17 18 6 0 10 15 9 35 0 20 4 33 10 31 6 -2 10 -11 8
-20 -2 -10 10 -4 31 16 18 18 32 35 30 38 -2 4 5 13 14 20 14 12 15 11 9 -9
-5 -14 -3 -22 4 -22 6 0 8 5 5 10 -3 6 -2 10 4 10 5 0 13 -9 16 -20 4 -11 11
-17 17 -14 8 5 9 1 5 -10 -4 -9 -3 -15 2 -11 5 3 11 0 13 -7 3 -7 7 -4 12 7 4
11 4 17 1 13 -8 -8 -43 24 -38 35 6 11 33 8 30 -4 -1 -6 8 -15 21 -20 13 -5
22 -5 22 1 0 6 -9 10 -21 10 -11 0 -18 3 -15 8 2 4 -2 18 -11 32 -8 14 -12 17
-9 8 3 -9 -2 -19 -10 -22 -25 -9 -25 -7 -8 19 9 15 13 25 8 24 -5 -1 -11 0
-14 1 -21 8 -39 7 -34 -2 4 -7 2 -8 -4 -4 -8 5 -10 1 -6 -11 6 -16 4 -15 -10
2 -10 11 -14 13 -10 5 7 -13 6 -13 -12 0 -18 14 -18 14 -4 -5 11 -16 11 -17 0
-8 -19 17 -33 16 -27 -1 3 -8 -1 -22 -8 -33 -8 -10 -15 -13 -15 -7 0 6 3 14 7
18 4 3 7 16 8 28 2 19 1 19 -11 4 -8 -11 -14 -13 -19 -7 -3 6 -1 11 5 11 6 0
8 5 4 11 -9 16 -23 -9 -19 -33 3 -12 0 -16 -7 -12 -7 5 -8 2 -3 -6 6 -9 4 -11
-5 -5 -9 6 -11 4 -5 -5 6 -9 4 -11 -5 -5 -9 6 -11 4 -5 -5 6 -9 4 -11 -6 -5
-12 8 -12 6 0 -8 7 -9 17 -15 21 -12 4 3 10 -2 14 -10 7 -20 -7 -19 -35 4 -19
15 -21 21 -11 33 6 8 8 18 4 22 -4 4 -2 6 3 4 6 -2 10 -1 11 2 0 3 7 16 14 30
8 14 13 29 12 34 -2 5 4 4 12 -4 9 -7 16 -8 16 -3 0 5 14 10 30 10 17 0 30 -5
30 -10 0 -5 7 -3 17 4 13 11 17 11 21 1 3 -10 7 -10 19 -1 12 10 16 10 23 -2
5 -8 15 -14 22 -14 7 0 12 -8 10 -17 -1 -10 4 -15 14 -14 9 0 19 -6 22 -14 5
-13 3 -13 -14 0 -17 14 -18 14 -6 -1 7 -10 21 -15 31 -12 11 3 27 -6 43 -24
13 -15 33 -33 44 -39 10 -7 18 -20 16 -30 -2 -17 -2 -18 8 -2 6 10 17 15 27
11 14 -6 14 -8 -3 -20 -10 -7 -13 -13 -7 -13 7 0 18 6 25 13 15 15 274 17 297
3 10 -6 12 -5 7 2 -13 22 11 12 28 -11 16 -22 16 -22 6 0 -16 34 -11 40 10 13
11 -14 20 -20 20 -15 0 6 -5 16 -11 22 -12 12 -4 33 11 33 5 0 6 -8 3 -17 -5
-14 -2 -13 16 4 13 12 31 19 40 16 13 -4 14 -3 1 5 -10 8 -18 8 -27 0 -8 -6
-17 -8 -20 -4 -4 4 -1 11 7 16 8 5 12 12 8 15 -3 4 0 18 7 32 8 15 11 31 8 36
-3 5 -7 27 -9 48 -3 30 0 37 11 32 8 -3 15 -9 15 -15 0 -5 -5 -6 -12 -2 -7 4
-8 3 -4 -5 4 -6 12 -8 18 -5 8 5 9 1 5 -10 -4 -10 -7 -21 -7 -24 0 -4 -5 0
-11 8 -9 13 -10 13 -6 0 2 -8 10 -14 16 -13 14 4 14 -3 1 -27 -8 -16 -8 -18 5
-14 8 3 12 10 9 15 -3 5 2 9 10 9 8 0 19 -7 24 -16 8 -15 10 -14 16 1 3 10 4
20 1 23 -3 3 -5 0 -5 -7 0 -8 -8 -6 -25 5 -14 9 -25 20 -25 25 0 11 23 7 32
-6 4 -5 10 -6 15 -2 9 10 -18 28 -30 20 -5 -3 -7 0 -5 8 3 8 11 13 17 12 15
-4 14 14 -1 19 -6 2 -13 15 -15 27 -3 20 -1 22 12 11 8 -7 12 -16 9 -21 -3 -5
0 -9 5 -9 14 0 14 13 -1 28 -9 9 -9 12 0 12 6 0 19 -11 28 -25 15 -23 18 -24
34 -10 9 8 20 12 23 8 4 -3 7 -1 7 5 0 17 -10 15 -33 -6 -19 -16 -20 -16 -14
1 4 10 3 16 -1 14 -4 -3 -18 7 -32 21 -21 21 -22 24 -5 18 11 -4 16 -4 13 0
-10 9 15 33 27 26 6 -3 4 2 -4 11 -11 14 -11 20 0 34 8 9 9 14 2 10 -6 -4 -13
-1 -16 5 -3 10 -8 10 -18 -1 -8 -8 -9 -11 -2 -7 6 3 14 2 17 -2 3 -5 -6 -14
-20 -21 -14 -6 -23 -15 -20 -20 4 -5 0 -12 -6 -14 -9 -4 -9 -6 1 -6 11 -1 10
-5 -5 -16 -16 -13 -16 -14 -1 -9 9 3 17 1 17 -4 0 -6 -9 -9 -20 -7 -11 2 -20
0 -20 -6 0 -5 -3 -8 -7 -8 -23 4 -35 -3 -30 -16 8 -19 -13 -31 -24 -14 -5 8
-9 19 -9 24 0 6 5 3 10 -5 7 -10 10 -11 10 -2 0 7 12 20 28 30 15 9 29 26 30
37 2 11 9 23 15 27 7 4 12 11 13 15 1 16 27 63 35 63 4 0 9 -7 13 -15 3 -8 11
-15 18 -15 9 0 8 3 -2 10 -8 5 -11 10 -6 10 6 0 2 6 -8 13 -15 11 -17 17 -7
35 7 13 9 27 6 32 -3 6 -1 10 5 10 6 0 8 5 3 13 -10 17 -12 57 -1 51 4 -3 8 0
8 5 0 6 -4 11 -10 11 -5 0 -10 7 -10 16 0 19 -37 74 -62 92 -10 7 -15 19 -12
25 4 7 4 9 0 5 -4 -3 -24 -1 -44 6 -23 8 -86 12 -167 11 -83 -1 -133 2 -137 9
-5 8 -8 8 -8 0 0 -12 -69 -12 -89 1 -8 5 -12 4 -8 -1 8 -13 -246 -12 -255 1
-5 7 -8 7 -8 0 0 -12 -278 -14 -296 -3 -6 4 -14 4 -18 1 -4 -4 -54 -8 -112 -8
-91 -1 -104 1 -99 14 4 14 4 14 -7 1 -15 -17 -80 -20 -85 -4 -2 7 3 19 11 27
14 13 14 16 0 21 -9 3 -21 3 -27 0 -7 -3 -3 2 7 10 15 12 22 13 27 4 5 -7 11
-9 16 -5 12 13 -19 27 -38 17 -17 -9 -29 -4 -29 12 0 5 4 7 8 4 4 -2 14 -1 22
5 10 6 11 9 3 9 -7 0 -13 5 -13 11 0 5 4 8 9 4 5 -3 12 -1 16 5 3 5 11 10 17
10 6 0 6 -6 -2 -15 -11 -13 -10 -18 6 -30 17 -12 20 -11 29 4 6 10 17 16 25
14 13 -4 13 -3 1 5 -16 12 -44 4 -35 -9 3 -5 1 -9 -5 -9 -20 0 -21 19 0 33 11
8 16 18 11 21 -6 3 -13 1 -15 -4 -3 -6 -4 -5 -3 2 2 7 11 13 22 14 46 2 47 3
34 19 -8 10 -9 15 -1 15 6 0 16 -9 23 -20 7 -11 17 -20 22 -20 4 0 2 7 -5 16
-12 15 -11 16 11 10 19 -6 21 -5 10 3 -14 10 -13 12 9 15 5 0 13 5 18 10 5 5
3 6 -4 2 -7 -4 -13 -2 -13 3 0 6 -9 2 -20 -9 -12 -12 -26 -18 -32 -14 -7 4 -4
11 8 17 33 19 46 35 31 40 -9 4 -8 6 2 6 8 1 20 9 28 19 11 13 13 14 12 2 -1
-8 -1 -22 0 -30 1 -13 3 -13 10 -1 6 9 6 22 1 32 -5 9 -6 20 -2 24 4 5 2 5 -5
2 -6 -4 -14 -1 -17 5 -5 10 -7 10 -12 1 -3 -7 -11 -13 -17 -13 -7 0 -5 6 4 15
12 12 22 14 42 6 23 -9 25 -8 20 7 -6 15 -5 15 11 3 15 -13 20 -12 39 7 12 12
16 22 9 22 -6 0 -12 -5 -12 -11 0 -6 -7 -4 -15 5 -8 8 -15 16 -15 18 0 7 45 3
58 -5 7 -5 12 -4 12 2 0 6 -5 11 -11 11 -5 0 -7 5 -4 10 4 6 10 8 14 5 5 -2
17 2 27 10 10 8 14 15 9 15 -6 0 -16 -5 -23 -12 -7 -7 -12 -8 -12 -2 0 6 13
23 29 38 20 20 30 24 34 14 2 -7 7 -10 11 -7 11 10 -23 39 -38 33 -11 -4 -14
2 -12 20 2 15 -2 29 -8 33 -6 3 -8 3 -4 -2 4 -4 3 -14 -3 -22 -6 -7 -7 -13 -2
-13 5 0 10 -7 10 -16 0 -15 -2 -15 -13 0 -8 11 -14 13 -19 7 -3 -6 -1 -11 4
-11 6 0 10 -6 9 -12 -2 -8 5 -12 16 -10 17 3 18 2 7 -12 -16 -19 -41 -5 -41
23 0 14 -2 14 -10 1 -6 -9 -5 -17 3 -22 7 -5 0 -6 -15 -4 -15 3 -31 -1 -34 -7
-4 -7 -4 -9 1 -5 9 9 35 -9 35 -23 0 -5 -12 -1 -27 8 -19 12 -24 14 -19 4 6
-9 5 -12 -2 -7 -11 7 -11 -19 1 -30 4 -4 7 -12 7 -18 -1 -6 -10 0 -20 13 -11
13 -20 18 -20 12 0 -6 -6 -10 -12 -9 -8 2 -13 -7 -12 -24 1 -16 -3 -25 -9 -21
-6 4 -7 1 -2 -8 7 -11 5 -11 -11 1 -17 14 -18 14 -6 -2 12 -15 11 -17 -7 -13
-23 4 -29 -10 -8 -18 9 -4 9 -6 -1 -6 -7 -1 -11 -5 -7 -10 3 -6 -4 -8 -15 -6
-11 2 -18 0 -15 -6 4 -5 4 -9 1 -9 -3 0 -10 9 -16 20 -9 16 -8 18 5 14 9 -4
15 -3 13 2 -3 9 171 188 185 190 4 1 10 2 15 3 4 1 0 6 -8 12 -13 9 -12 10 2
5 10 -3 20 -1 23 4 4 6 1 10 -5 10 -6 0 6 15 27 33 59 50 63 54 55 62 -4 5 -2
5 4 2 6 -3 21 7 33 24 17 23 25 27 40 19 10 -5 21 -6 25 -3 3 3 6 2 6 -4 0 -6
-7 -14 -16 -17 -22 -8 -26 -8 -19 3 3 5 1 13 -5 16 -6 4 -9 1 -8 -7 2 -7 -3
-12 -11 -10 -12 3 -12 0 -2 -12 10 -12 9 -17 -7 -25 -11 -6 -23 -7 -27 -3 -5
4 -5 1 0 -7 6 -10 4 -12 -5 -6 -9 6 -11 4 -5 -5 6 -9 4 -11 -5 -5 -9 5 -11 4
-6 -3 5 -8 1 -10 -11 -6 -15 6 -15 4 2 -10 14 -11 15 -15 5 -14 -8 2 -18 7
-21 12 -4 4 -10 3 -13 -3 -6 -10 0 -13 20 -10 8 1 24 -22 24 -35 0 -5 -7 -3
-15 4 -9 7 -15 8 -15 2 0 -5 7 -13 16 -16 22 -9 24 -8 24 9 0 18 9 19 32 1 10
-7 15 -16 11 -20 -4 -4 1 -4 12 0 17 7 18 5 8 -7 -10 -13 -10 -16 1 -16 16 0
15 29 -2 35 -6 2 -8 15 -6 28 3 17 1 23 -6 19 -6 -4 -9 -13 -6 -21 6 -17 -10
-19 -20 -2 -4 6 3 19 16 30 28 23 41 23 33 1 -5 -15 -3 -14 10 2 21 25 21 39
2 32 -8 -4 -17 -2 -20 3 -6 9 8 14 28 11 4 0 7 4 7 10 0 6 -9 8 -22 4 -13 -3
-1 6 25 21 31 18 46 33 42 42 -4 10 0 12 11 8 8 -3 18 -6 20 -6 2 0 4 -5 4
-11 0 -5 -4 -7 -10 -4 -6 3 -7 -1 -4 -10 5 -11 2 -14 -10 -9 -10 4 -18 0 -22
-10 -3 -9 -9 -14 -13 -12 -14 9 -6 -43 9 -56 12 -11 12 -11 2 3 -10 13 -10 23
-1 43 7 14 16 26 21 26 5 0 6 -4 3 -10 -3 -5 -2 -10 3 -10 13 0 33 50 26 62
-4 6 -1 9 7 6 8 -3 13 -12 13 -21 -1 -9 2 -14 7 -11 5 3 9 11 8 17 -3 27 2 38
14 31 10 -6 10 -4 0 7 -18 18 -16 34 2 19 8 -6 18 -9 24 -6 5 4 11 1 14 -6 2
-8 3 -7 3 2 -1 8 -10 15 -20 15 -11 0 -21 6 -23 13 -3 7 1 10 11 6 9 -3 16 -1
16 6 0 6 -4 8 -10 5 -17 -11 -11 7 8 21 21 17 40 18 24 2 -7 -7 -12 -16 -12
-21 0 -5 7 -1 16 8 15 15 15 18 -6 41 -13 13 -19 24 -13 24 6 0 16 -7 23 -16
8 -8 23 -20 34 -25 19 -9 20 -9 3 4 -15 12 -15 16 -3 26 11 9 15 9 18 -1 3 -8
6 -6 11 5 9 24 -7 29 -29 8 -16 -15 -22 -16 -32 -4 -13 13 -11 14 18 17 8 0
15 8 15 16 0 17 -42 23 -52 7 -4 -6 -1 -7 7 -2 8 5 11 3 8 -6 -3 -8 -15 -13
-27 -12 -11 2 -21 -2 -21 -8 0 -5 6 -7 13 -4 14 7 -21 -24 -49 -43 -11 -7 -13
-10 -5 -6 7 4 17 0 22 -7 14 -22 10 -33 -6 -19 -11 9 -19 8 -37 -4 -12 -9 -17
-16 -10 -16 10 0 10 -3 0 -14 -15 -16 -32 -11 -22 6 4 7 2 8 -5 4 -6 -4 -9
-11 -6 -16 2 -4 -4 -19 -15 -33 -20 -25 -42 -29 -57 -12 -4 4 -3 6 2 4 12 -5
95 78 86 86 -3 3 3 3 13 -1 12 -4 17 -4 13 2 -3 5 19 35 48 67 38 40 62 58 82
59 26 2 67 28 44 28 -5 0 -13 -5 -17 -11 -12 -20 -25 17 -15 43 4 13 6 29 4
36 -3 6 0 12 7 12 6 0 8 -6 5 -12 -4 -7 2 -3 12 9 10 12 27 30 38 39 15 12 16
14 3 10 -9 -3 -19 2 -22 11 -4 10 -2 14 8 10 10 -4 13 -1 9 9 -3 7 -9 14 -13
14 -13 0 -19 -26 -10 -41 10 -15 -5 -39 -25 -39 -8 0 -13 13 -13 36 0 19 3 33
6 30 3 -3 12 4 20 15 10 15 11 23 4 28 -6 4 -7 12 -3 20 7 10 10 8 16 -8 6
-21 7 -21 20 -4 10 13 10 23 3 37 -9 16 -8 18 8 12 11 -4 7 3 -10 17 -19 16
-27 29 -23 40 4 12 2 14 -10 10 -13 -5 -14 -3 -4 16 7 12 9 27 5 33 -5 8 -2 9
10 5 9 -4 15 -3 12 2 -3 5 1 12 10 15 9 3 12 11 8 18 -5 8 -2 9 12 4 14 -5 16
-4 7 5 -13 13 -37 3 -28 -12 6 -8 2 -10 -35 -13 -8 -1 -14 -7 -12 -14 1 -7 -2
-12 -7 -12 -5 0 -9 14 -9 31 1 20 4 26 9 17 7 -10 9 -10 9 0 0 6 5 12 11 12 5
0 7 -4 4 -10 -3 -5 -2 -10 2 -10 11 0 47 60 36 60 -4 0 -1 5 7 10 8 5 10 10 4
10 -6 0 -19 -10 -30 -22 -10 -12 -13 -18 -5 -13 9 5 12 3 9 -5 -5 -15 -41 -20
-60 -8 -10 6 -9 8 4 8 9 0 30 14 46 30 17 17 27 30 22 30 -5 0 -12 -4 -15 -10
-3 -5 -11 -10 -17 -10 -6 0 -4 8 5 18 10 10 17 25 16 33 0 8 -4 4 -9 -8 -5
-13 -14 -23 -19 -23 -5 0 -3 14 6 30 12 25 18 29 29 19 10 -8 14 -8 14 0 0 6
-4 11 -10 11 -5 0 -10 5 -10 11 0 6 -10 20 -22 30 -22 18 -22 19 -3 17 11 -2
23 -7 27 -13 4 -5 10 -6 14 -2 4 3 -4 16 -17 28 -18 15 -20 19 -6 15 10 -3 16
-2 13 3 -3 5 -17 9 -31 9 -23 0 -24 -2 -8 -14 19 -14 7 -19 -13 -6 -17 11 -15
69 2 76 17 6 19 -5 3 -21 -15 -15 8 -28 25 -13 11 8 15 8 18 -1 2 -7 12 -13
21 -15 9 -1 15 2 11 7 -3 5 -10 6 -16 3 -8 -5 -9 -1 -5 10 4 9 3 15 -2 12 -5
-3 -11 1 -15 9 -3 8 3 19 12 24 9 6 12 11 5 11 -6 0 -15 -4 -18 -10 -3 -5 -11
-10 -17 -10 -6 0 -1 11 11 24 17 19 20 26 9 32 -7 4 -10 4 -6 -1 9 -9 -9 -35
-24 -35 -7 0 -7 4 -1 13 17 21 23 46 10 41 -7 -2 -13 6 -14 23 l-1 28 25 -30
c23 -27 61 -46 47 -24 -3 5 -10 6 -16 3 -8 -5 -9 -1 -5 10 4 9 3 15 -1 13 -4
-3 -18 7 -32 20 -14 14 -18 23 -10 20 19 -6 52 11 45 24 -8 12 18 12 31 -1 7
-7 11 -6 11 5 0 8 -3 13 -5 10 -3 -3 -11 3 -19 13 -8 9 -12 11 -8 5 6 -12 -8
-18 -30 -13 -5 1 -20 3 -33 5 -27 3 -42 15 -19 15 8 0 29 14 45 30 17 17 27
30 22 30 -5 0 -12 -4 -15 -10 -3 -5 -11 -10 -17 -10 -6 0 -4 8 5 18 10 10 17
25 16 33 0 8 -4 4 -9 -8 -5 -13 -14 -23 -19 -23 -5 0 -3 14 6 30 12 25 18 29
29 19 10 -8 14 -8 14 0 0 6 -4 11 -10 11 -5 0 -10 5 -10 11 0 6 -10 20 -22 30
-22 18 -22 19 -3 17 11 -2 23 -7 27 -13 4 -5 10 -6 14 -2 4 3 -4 16 -17 28
-18 15 -20 19 -6 15 10 -3 16 -2 13 3 -3 5 -17 9 -31 9 -23 0 -24 -2 -8 -14
19 -14 7 -19 -13 -6 -17 11 -15 69 2 76 17 6 19 -5 3 -21 -8 -8 -7 -13 1 -18
6 -4 17 -2 23 4 7 7 13 6 21 -3 8 -10 17 -11 31 -5 18 9 18 9 -3 5 -18 -3 -22
-1 -18 10 3 8 2 13 -3 10 -5 -3 -11 1 -15 9 -3 8 3 19 12 24 9 6 12 11 5 11
-6 0 -15 -4 -18 -10 -3 -5 -11 -10 -17 -10 -6 0 -1 11 11 24 17 19 20 26 9 32
-7 4 -10 4 -6 -1 9 -9 -9 -35 -24 -35 -7 0 -7 4 -1 13 17 21 23 46 10 41 -7
-2 -13 6 -14 23 l-1 28 26 -30 c14 -17 30 -29 35 -27 4 1 6 -6 2 -17 -7 -22
10 -38 21 -20 4 8 3 9 -4 5 -15 -9 -15 -1 -2 24 9 16 7 18 -11 15 -15 -3 -19
0 -15 11 3 8 2 13 -2 11 -4 -3 -18 7 -32 20 -14 14 -18 23 -10 20 21 -6 52 12
44 25 -5 8 -1 9 10 5 9 -4 15 -3 11 2 -3 6 -13 10 -23 10 -28 0 -72 8 -79 15
-3 3 1 6 10 6 8 0 29 14 45 30 17 17 27 30 22 30 -5 0 -12 -4 -15 -10 -3 -5
-11 -10 -17 -10 -6 0 -4 8 5 18 10 10 17 25 16 33 0 8 -4 4 -9 -8 -5 -13 -14
-23 -19 -23 -5 0 -3 14 6 30 12 25 18 29 29 19 10 -8 14 -8 14 0 0 6 -4 11
-10 11 -5 0 -10 5 -10 11 0 6 -10 20 -22 30 -22 18 -22 19 -3 17 11 -2 23 -7
27 -13 4 -5 10 -6 14 -2 4 3 -4 16 -17 28 -18 15 -20 19 -6 15 10 -3 16 -2 13
3 -3 5 -17 9 -31 9 -23 0 -24 -2 -8 -14 19 -14 7 -19 -13 -6 -17 11 -15 69 2
76 17 6 19 -5 3 -21 -8 -8 -7 -13 1 -18 6 -4 17 -2 23 4 7 7 14 6 22 -6 10
-13 14 -13 20 -3 6 9 4 11 -5 5 -10 -6 -12 -4 -7 9 4 9 3 15 -2 12 -5 -3 -12
1 -15 9 -3 9 1 18 10 22 12 4 11 8 -6 20 -13 9 -20 22 -17 33 3 13 0 17 -10
13 -13 -5 -13 -3 -3 17 l13 23 12 -22 c10 -20 13 -21 18 -7 4 10 3 15 -2 12
-16 -10 -20 21 -5 43 8 11 11 21 5 21 -5 0 -11 -5 -13 -10 -2 -6 -13 -12 -25
-13 -12 0 -19 -5 -17 -9 3 -4 1 -8 -4 -8 -5 0 -9 20 -9 45 0 25 4 45 8 45 5 0
13 10 20 21 8 15 8 19 0 15 -6 -4 -11 -2 -11 4 0 6 -4 8 -10 5 -5 -3 -10 -2
-10 3 0 6 7 12 15 16 8 3 15 1 15 -3 0 -5 6 -11 13 -14 16 -6 20 32 6 50 -6 6
-8 17 -4 23 3 5 1 10 -4 10 -14 0 -14 -23 0 -37 6 -6 9 -17 6 -25 -3 -8 -9 -3
-17 14 -7 15 -16 25 -21 23 -4 -3 -11 0 -15 6 -4 7 -3 10 2 7 5 -3 17 3 27 14
9 10 14 18 10 18 -4 0 1 6 12 13 14 11 15 16 5 22 -7 5 -11 4 -8 -1 2 -5 -5
-19 -18 -32 l-21 -22 -1 49 c-1 39 2 51 16 54 16 4 16 5 0 6 -14 1 -17 12 -17
70 0 80 -16 124 -62 168 -51 48 -100 61 -175 46z m256 -443 c0 -5 -4 -10 -10
-10 -5 0 -10 5 -10 10 0 6 5 10 10 10 6 0 10 -4 10 -10z m0 -60 c0 -5 -4 -10
-9 -10 -6 0 -13 5 -16 10 -3 6 1 10 9 10 9 0 16 -4 16 -10z m13 -125 c-21 -28
-33 -32 -33 -9 0 8 4 13 9 10 5 -3 11 1 15 9 3 8 10 15 16 15 6 0 3 -11 -7
-25z m3 -62 c22 -34 21 -37 -10 -40 -21 -1 -24 3 -24 33 0 41 10 43 34 7z m9
-72 c-3 -6 -11 -11 -17 -11 -6 0 -6 6 2 15 14 17 26 13 15 -4z m-28 -95 c0
-22 -5 -37 -14 -40 -9 -4 -11 -2 -7 6 4 6 7 24 6 39 0 16 3 29 7 29 4 0 7 -15
8 -34z m29 -18 c4 -6 0 -16 -8 -22 -8 -6 -13 -16 -11 -23 2 -6 -1 -14 -6 -18
-8 -4 -8 -12 0 -27 11 -21 -3 -49 -18 -34 -4 4 -1 11 7 16 10 7 11 10 3 10
-17 0 -13 50 5 72 8 9 11 22 7 27 -3 6 -2 11 4 11 5 0 13 -5 17 -12z m17 -177
c8 -8 7 -11 -3 -12 -8 -1 -22 -2 -30 -3 -8 0 -14 -7 -12 -13 1 -7 -2 -13 -8
-13 -15 0 -12 30 3 31 10 0 10 2 0 6 -7 2 -13 8 -13 12 0 12 50 5 63 -8z m-43
-72 c0 -5 -4 -9 -10 -9 -5 0 -10 7 -10 16 0 8 5 12 10 9 6 -3 10 -10 10 -16z
m6 -30 c3 -6 2 -15 -4 -21 -6 -6 -8 -17 -5 -24 3 -8 1 -14 -5 -14 -5 0 -10 16
-10 35 0 35 10 45 24 24z m19 -88 c-3 -6 -11 -11 -17 -11 -6 0 -6 6 2 15 14
17 26 13 15 -4z m-28 -95 c0 -22 -5 -37 -14 -40 -9 -4 -11 -2 -7 6 4 6 7 24 6
39 0 16 3 29 7 29 4 0 7 -15 8 -34z m29 -18 c4 -6 0 -16 -8 -22 -8 -6 -13 -16
-11 -23 2 -6 -1 -14 -6 -18 -8 -4 -8 -12 0 -27 11 -21 -3 -49 -18 -34 -4 4 -1
11 7 16 10 7 11 10 3 10 -17 0 -13 50 5 72 8 9 11 22 7 27 -3 6 -2 11 4 11 5
0 13 -5 17 -12z m17 -177 c8 -8 7 -11 -3 -12 -8 -1 -22 -2 -30 -3 -8 0 -14 -7
-12 -13 1 -7 -2 -13 -8 -13 -15 0 -12 30 3 31 10 0 10 2 0 6 -7 2 -13 8 -13
12 0 12 50 5 63 -8z m-43 -72 c0 -5 -4 -9 -10 -9 -5 0 -10 7 -10 16 0 8 5 12
10 9 6 -3 10 -10 10 -16z m6 -30 c3 -6 2 -15 -4 -21 -6 -6 -8 -17 -5 -24 3 -8
1 -14 -5 -14 -5 0 -10 16 -10 35 0 35 10 45 24 24z m19 -88 c-3 -6 -11 -11
-17 -11 -6 0 -6 6 2 15 14 17 26 13 15 -4z m-28 -95 c0 -22 -5 -37 -14 -40 -9
-4 -11 -2 -7 6 4 6 7 24 6 39 0 16 3 29 7 29 4 0 7 -15 8 -34z m29 -18 c4 -6
0 -16 -8 -22 -8 -6 -13 -16 -11 -23 2 -6 -1 -14 -6 -18 -8 -4 -8 -12 -1 -26
11 -19 6 -39 -9 -39 -15 0 -9 84 6 102 8 9 12 22 8 27 -3 6 -2 11 4 11 5 0 13
-5 17 -12z m-22 -242 c-8 -20 -24 -21 -24 0 0 8 5 12 10 9 6 -3 10 -1 10 6 0
7 2 10 5 7 3 -3 3 -13 -1 -22z m14 -56 c13 -16 19 -30 14 -30 -5 0 -16 10 -24
22 -11 17 -15 18 -15 5 0 -9 6 -18 14 -21 10 -4 10 -11 1 -31 -6 -14 -15 -25
-20 -25 -12 0 -10 24 5 39 7 9 8 11 1 7 -8 -4 -12 6 -12 29 0 43 8 44 36 5z
m25 -55 c4 -8 2 -17 -3 -20 -6 -4 -10 -4 -10 -1 0 2 -3 11 -6 20 -3 9 -2 16 4
16 5 0 12 -7 15 -15z m-41 -50 c0 -5 -5 -11 -11 -13 -6 -2 -11 4 -11 13 0 9 5
15 11 13 6 -2 11 -8 11 -13z m-22 -245 c0 -5 -4 -10 -10 -10 -5 0 -10 5 -10
10 0 6 5 10 10 10 6 0 10 -4 10 -10z m-58 -72 c-7 -7 -12 -8 -12 -2 0 5 -4 3
-9 -4 -7 -11 -9 -10 -14 3 -4 9 -3 14 2 11 5 -3 12 2 15 11 5 12 9 14 18 5 9
-9 9 -15 0 -24z m-42 -47 c0 -4 -10 -13 -22 -19 -13 -7 -16 -11 -8 -9 16 2 20
-3 20 -24 0 -8 -5 -8 -15 1 -10 8 -15 9 -15 1 0 -6 -10 -10 -22 -8 -12 1 -23
-3 -23 -10 0 -17 -22 -37 -28 -26 -3 4 6 21 19 36 13 16 24 25 24 21 0 -4 9 1
20 11 11 10 17 21 15 25 -6 9 16 19 28 13 4 -2 7 -8 7 -12z m-1234 -417 c1
-200 -2 -341 -7 -333 -5 8 -9 9 -9 3 0 -13 -82 -13 -92 1 -5 7 -8 7 -8 0 0 -7
-34 -10 -87 -10 -49 1 -91 -3 -94 -8 -8 -11 -60 3 -53 14 3 5 11 6 17 3 7 -4
9 -3 4 1 -4 5 1 18 10 29 13 15 10 14 -12 -4 -16 -14 -32 -27 -35 -30 -8 -8
-114 -5 -128 4 -7 4 -12 3 -12 -2 0 -5 -7 -9 -15 -9 -8 0 -12 4 -9 9 6 10 -10
11 -20 1 -3 -4 -15 -7 -25 -8 -13 -1 -17 3 -13 14 5 14 3 14 -11 2 -9 -7 -17
-10 -17 -5 0 5 -5 2 -10 -6 -7 -12 -9 -10 -7 7 0 12 4 20 8 17 4 -2 9 3 13 11
6 18 2 18 -27 5 -20 -9 -20 -9 -3 2 10 7 28 23 39 35 19 21 44 23 32 2 -3 -5
1 -6 10 -3 13 5 13 9 3 21 -10 13 -5 22 32 57 25 22 44 45 42 49 -1 5 1 6 6 3
4 -2 16 7 26 22 10 15 33 38 51 52 18 14 31 28 28 33 -2 4 1 6 9 5 7 -2 12 2
11 9 -2 8 4 10 14 6 12 -5 14 -3 8 7 -6 9 -4 11 4 6 8 -5 11 -3 9 6 -2 7 18
34 45 59 26 25 47 42 47 37 0 -4 4 -8 10 -8 5 0 7 7 4 15 -4 8 -1 15 6 15 6 0
9 4 6 8 -3 5 8 21 25 36 16 15 29 23 29 16 0 -6 5 -8 10 -5 6 4 7 11 4 17 -4
6 -2 8 4 4 6 -3 13 -2 17 4 3 5 0 10 -7 10 -8 1 -6 6 5 15 11 7 26 11 35 7 14
-5 15 -3 5 10 -11 12 -9 18 6 32 10 10 21 13 22 8 2 -5 13 0 24 11 l20 20 -20
-6 c-20 -7 -20 -7 -1 8 11 8 20 15 21 15 0 0 1 -156 1 -346z m1071 255 c1 -12
0 -19 -3 -16 -3 3 -18 -9 -33 -25 -25 -28 -28 -29 -26 -11 1 25 24 55 35 48 4
-3 10 2 14 10 8 21 11 19 13 -6z m-145 -170 c-6 -26 -52 -51 -52 -29 0 6 -5
10 -11 10 -5 0 -7 -5 -3 -12 5 -7 3 -8 -5 -3 -9 5 -10 10 -2 18 8 8 14 8 22 0
6 -6 18 -9 26 -6 12 5 12 8 -2 23 -14 15 -13 16 7 15 14 -2 22 -8 20 -16z
m-90 -57 c8 -8 9 -15 2 -22 -15 -15 -40 -3 -41 19 -2 21 20 22 39 3z m44 -29
c-7 -7 -26 7 -26 19 0 6 6 6 15 -2 9 -7 13 -15 11 -17z m-80 -36 c17 6 17 5 5
-11 -8 -9 -20 -15 -28 -12 -8 3 -12 2 -9 -3 3 -5 -2 -12 -12 -16 -29 -13 -43
-14 -39 -2 2 7 11 11 21 9 15 -3 22 15 17 42 -1 5 4 4 12 -2 8 -7 23 -9 33 -5z
m-103 -47 c-2 -3 -9 -5 -15 -5 -6 0 -12 -7 -14 -15 -1 -8 -5 -23 -10 -34 -5
-14 -3 -17 7 -14 8 3 12 13 11 23 -3 16 -1 17 12 6 15 -13 19 -11 14 7 -2 4
-7 6 -11 4 -5 -1 -6 2 -2 8 3 5 16 8 28 6 12 -2 28 1 35 7 7 5 15 7 19 4 3 -3
-11 -16 -30 -27 -25 -15 -34 -26 -30 -37 5 -12 1 -14 -15 -9 -15 5 -27 0 -43
-18 -12 -14 -29 -23 -40 -21 -22 4 -25 -5 -6 -24 6 -7 8 -12 2 -11 -5 2 -16 2
-24 1 -12 -1 -12 -4 1 -18 8 -10 14 -30 13 -45 0 -15 3 -24 7 -22 4 3 8 12 8
20 0 8 4 14 9 14 5 0 5 -12 -1 -27 -9 -24 -16 -28 -45 -27 -19 1 -39 7 -44 15
-8 13 -13 5 -10 -15 1 -5 -4 -4 -13 3 -10 9 -16 9 -21 1 -5 -8 -15 -6 -32 6
-24 15 -26 15 -20 0 4 -10 3 -15 -3 -11 -14 8 -13 18 5 41 13 16 14 16 9 1 -5
-13 -2 -16 10 -11 9 3 13 10 10 15 -3 5 3 6 13 2 16 -6 17 -5 3 12 -12 15 -12
17 -1 10 11 -6 13 -4 8 8 -4 10 -2 16 6 14 7 -1 11 4 9 11 -1 8 2 11 8 7 5 -3
10 -1 10 4 0 6 8 11 18 12 10 0 12 3 5 6 -10 3 -8 9 4 21 9 9 20 17 25 17 4 0
7 3 6 6 -6 13 25 37 40 32 9 -3 14 -3 10 2 -10 11 11 47 23 39 6 -3 13 3 16
14 4 17 8 18 18 9 7 -7 11 -14 8 -17z m-1343 -239 c0 -6 -4 -12 -8 -15 -5 -3
-9 1 -9 9 0 8 4 15 9 15 4 0 8 -4 8 -9z m2669 -427 c-15 -18 -26 -18 -26 1 0
8 4 12 9 9 4 -3 8 0 8 6 0 6 5 8 10 5 8 -5 7 -11 -1 -21z m-69 -76 c0 7 5 10
11 6 8 -4 7 -9 -2 -15 -11 -6 -10 -9 4 -15 9 -3 15 -10 12 -14 -3 -5 -16 1
-29 13 -14 12 -22 26 -19 30 3 5 9 3 14 -4 7 -11 9 -11 9 -1z m-675 -128 c-5
-8 -11 -8 -17 -2 -6 6 -7 16 -3 22 5 8 11 8 17 2 6 -6 7 -16 3 -22z m-57 -2
c12 4 10 -3 -6 -26 -28 -38 -39 -46 -47 -32 -4 6 1 20 10 30 10 11 14 24 10
32 -6 10 -5 10 5 1 7 -6 20 -9 28 -5z m-69 -14 c-5 -6 -8 -18 -7 -25 2 -8 -7
-14 -20 -15 l-23 -1 21 22 c11 12 18 24 15 27 -3 2 2 5 10 5 10 0 12 -4 4 -13z
m-1559 -86 c0 -10 -5 -16 -10 -13 -6 4 -8 10 -5 15 3 5 1 12 -5 15 -6 4 -10 3
-9 -2 4 -25 -1 -37 -13 -25 -8 8 -8 15 1 26 16 19 41 10 41 -16z m1512 -10
c-7 -7 -12 -8 -12 -2 0 14 12 26 19 19 2 -3 -1 -11 -7 -17z m-333 -14 c-10
-13 6 -32 18 -20 4 3 1 6 -6 6 -9 0 -9 4 1 14 13 13 37 14 58 1 6 -3 10 -2 10
4 0 5 8 8 18 6 9 -2 21 -4 25 -4 5 -1 6 -5 2 -10 -3 -5 -1 -13 5 -16 6 -4 10
-3 9 2 -4 23 4 29 34 28 32 0 37 -4 37 -27 0 -8 -7 -5 -15 6 -8 11 -15 15 -15
10 0 -6 -11 -16 -24 -22 -18 -8 -28 -7 -45 5 -17 11 -25 12 -36 3 -19 -16 -76
-22 -91 -9 -16 13 -8 36 11 36 11 0 12 -4 4 -13z m-1979 -4 c0 -5 -5 -10 -11
-10 -5 0 -7 5 -4 10 3 6 8 10 11 10 2 0 4 -4 4 -10z m-96 -26 c3 -7 -3 -18
-11 -26 -14 -11 -16 -11 -10 4 3 10 1 20 -5 24 -7 5 -8 2 -3 -6 5 -9 4 -11 -4
-6 -6 4 -9 11 -7 15 8 12 35 9 40 -5z m-87 -1 c-4 -3 -2 -12 4 -19 8 -9 5 -15
-10 -23 -11 -6 -18 -17 -15 -25 3 -7 -3 -19 -12 -27 -15 -12 -16 -11 -10 11
l7 25 -15 -25 c-9 -14 -15 -21 -16 -16 0 6 -13 -3 -30 -19 -30 -29 -35 -29
-24 -1 3 9 13 16 21 16 9 0 13 6 10 14 -4 10 0 14 14 11 17 -3 24 6 20 28 0 4
4 7 9 7 6 0 9 4 8 9 -2 5 6 17 17 25 20 16 34 21 22 9z m-133 -127 c-3 -9 -10
-16 -15 -16 -5 0 -4 9 3 20 14 22 21 20 12 -4z"/>
<path d="M3763 4105 c0 -8 6 -16 14 -19 11 -4 11 -1 3 14 -13 24 -17 25 -17 5z"/>
<path d="M2390 2075 c-7 -8 -16 -12 -21 -9 -14 8 -30 -6 -22 -19 11 -18 12
-37 3 -37 -5 0 -12 5 -15 10 -4 6 -11 8 -16 4 -5 -3 -7 -9 -4 -13 2 -5 -7 -19
-20 -31 -14 -13 -25 -20 -25 -16 0 10 -45 -23 -46 -34 -1 -6 -3 -12 -4 -15 -1
-3 -3 -11 -4 -17 0 -7 -8 -13 -17 -13 -21 0 -95 -65 -91 -81 1 -6 -15 -24 -35
-40 -49 -37 -119 -104 -109 -104 4 0 -15 -18 -42 -40 -60 -46 -67 -57 -53 -73
12 -16 2 -31 -23 -35 -14 -3 -17 1 -12 15 5 13 4 15 -4 7 -6 -6 -12 -20 -15
-32 -2 -12 -7 -28 -11 -35 -6 -9 -4 -9 8 1 12 10 18 9 28 -3 9 -11 16 -12 25
-5 7 6 20 8 29 4 9 -4 16 -1 16 6 0 9 5 8 18 -3 16 -15 19 -14 40 13 14 17 29
27 38 23 7 -3 12 -8 10 -12 -3 -4 0 -13 5 -21 7 -11 8 -9 6 8 -4 28 -24 43
-46 34 -14 -5 -14 -4 -2 11 10 13 17 14 26 7 14 -12 62 -23 51 -13 -4 4 -13 8
-20 9 -13 2 -96 54 -96 60 0 10 40 -3 45 -14 3 -7 9 -10 15 -7 5 3 10 1 10 -6
0 -7 3 -10 6 -7 3 4 1 16 -6 27 -7 13 -7 21 -1 21 14 0 29 -32 24 -50 -4 -13
-3 -13 6 -1 6 9 6 21 1 31 -6 11 -5 21 2 28 14 14 17 54 5 70 -6 7 -6 12 0 12
16 0 32 -22 26 -36 -3 -8 -1 -14 4 -14 13 0 12 33 -1 42 -8 5 -7 8 2 8 6 0 12
5 12 11 0 8 -5 8 -15 -1 -9 -7 -15 -8 -15 -2 0 5 15 19 34 30 34 20 35 20 33
1 -1 -11 -6 -18 -12 -16 -5 3 -11 -7 -11 -22 -1 -14 1 -20 3 -13 3 6 9 12 14
12 6 0 7 -4 4 -10 -3 -5 -1 -10 5 -10 6 0 8 -5 4 -12 -4 -7 -3 -8 4 -4 9 5 9
13 1 28 -9 17 -7 25 12 44 28 27 71 24 62 -4 -4 -14 -3 -15 5 -2 13 17 6 30
-14 30 -16 0 -19 16 -4 25 6 3 10 14 9 23 0 12 -3 11 -9 -5 -10 -25 -11 -26
-34 -17 -9 3 -14 10 -11 15 3 4 12 6 19 3 8 -3 16 4 19 16 3 11 9 20 14 19 20
-3 34 2 28 11 -3 6 -2 10 4 10 5 0 13 -9 16 -20 4 -11 10 -18 15 -15 5 3 11
-3 13 -12 4 -17 5 -17 6 0 0 10 -6 20 -14 23 -8 4 -12 10 -9 16 3 5 12 4 20
-3 12 -10 17 -9 27 0 9 10 8 11 -8 5 -16 -6 -18 -4 -8 6 16 17 50 23 58 10 4
-6 11 -8 16 -5 5 4 10 -4 10 -17 1 -18 2 -19 6 -5 6 22 -15 49 -30 40 -6 -4
-8 0 -4 10 4 12 2 14 -11 10 -15 -6 -15 -4 -4 10 8 9 20 13 29 10 11 -4 14 -2
9 5 -4 7 -3 12 2 12 6 0 13 -7 16 -16 9 -23 8 -24 -11 -18 -11 4 -14 3 -7 -3
6 -4 16 -17 22 -28 9 -17 10 -15 8 16 -2 20 -6 41 -10 47 -3 6 0 13 6 16 7 3
3 3 -9 0 -18 -4 -22 -2 -17 10 3 8 13 12 22 9 15 -4 15 -3 2 6 -13 9 -13 11 0
11 12 0 13 2 1 9 -11 7 -11 9 0 14 11 4 11 6 1 6 -8 1 -10 6 -5 14 11 18 13
38 2 31 -5 -3 -9 -1 -9 5 0 5 6 11 13 14 6 2 9 7 6 11 -3 4 -12 0 -19 -9z m-7
-31 c4 -1 10 -2 13 -3 3 0 2 -7 -3 -13 -4 -7 -8 -20 -8 -28 0 -8 -6 -25 -13
-37 -7 -13 -10 -23 -6 -23 4 0 -5 -9 -19 -20 -14 -12 -24 -26 -21 -33 2 -7 -4
-13 -15 -14 -18 -2 -18 0 3 37 11 21 24 36 28 34 3 -2 10 1 14 7 5 8 2 10 -7
5 -8 -4 -5 0 5 8 11 9 15 16 9 16 -7 0 -15 -5 -18 -10 -4 -6 -11 -7 -17 -4 -7
5 -8 2 -3 -6 6 -9 4 -11 -5 -5 -9 6 -11 4 -5 -5 5 -8 4 -11 -3 -7 -6 5 -8 -1
-4 -15 3 -14 2 -19 -7 -14 -6 4 -9 11 -6 16 3 5 0 12 -6 16 -8 5 -9 3 -4 -6 5
-8 4 -11 -3 -6 -6 4 -16 -4 -23 -16 -7 -13 -19 -29 -28 -36 -9 -8 -10 -11 -3
-7 7 4 20 1 28 -6 12 -10 15 -10 12 1 -2 7 2 14 7 16 6 2 11 -4 12 -14 1 -16
-5 -19 -42 -17 -39 1 -43 -1 -32 -14 9 -11 9 -13 0 -8 -6 4 -15 2 -19 -4 -5
-9 -11 -7 -21 6 -15 22 -17 12 -3 -16 6 -11 7 -18 3 -17 -4 1 -21 -5 -37 -14
l-30 -15 28 0 c39 0 43 -10 17 -36 -13 -12 -21 -16 -17 -9 11 19 -3 35 -20 21
-8 -6 -14 -9 -14 -5 0 4 -16 -8 -35 -25 -27 -25 -32 -35 -24 -46 9 -10 8 -13
-2 -13 -10 0 -10 -3 -1 -12 8 -8 8 -17 1 -30 -8 -14 -14 -16 -29 -8 -17 9 -18
7 -14 -18 3 -19 2 -23 -5 -12 -5 8 -7 18 -5 22 3 4 0 8 -5 8 -6 0 -11 -6 -11
-12 0 -10 -2 -10 -9 0 -6 10 -10 10 -20 -1 -9 -12 -6 -19 16 -35 22 -16 25
-23 16 -33 -6 -6 -9 -17 -7 -24 8 -20 -23 -40 -40 -26 -10 8 -16 9 -21 1 -3
-6 -11 -8 -16 -4 -5 3 -16 1 -23 -5 -10 -8 -16 -8 -23 1 -23 29 -22 35 2 32
31 -3 56 33 34 48 -11 7 -4 18 30 48 41 36 71 45 55 17 -4 -7 -3 -8 2 -4 4 4
8 18 9 31 0 15 18 40 50 69 27 25 52 44 55 43 3 -2 15 10 28 25 13 16 19 29
12 29 -6 0 6 15 26 33 21 17 43 31 50 29 13 -3 28 15 29 33 1 6 6 9 13 8 7 -2
12 2 12 7 0 5 -6 10 -12 10 -7 0 -4 6 7 12 11 7 22 10 23 9 9 -7 61 53 55 63
-4 6 3 3 14 -6 11 -10 22 -18 25 -18 8 0 3 43 -6 59 -7 11 -6 12 5 5 8 -5 17
-9 22 -10z m-92 -136 c9 -19 9 -21 -1 -11 -11 10 -16 9 -27 -5 -11 -15 -12
-13 -2 11 15 33 15 33 30 5z"/>
<path d="M2309 1973 l-24 -28 24 20 c13 11 25 19 27 18 5 -4 7 8 2 13 -3 2
-15 -8 -29 -23z"/>
<path d="M2175 1860 c-3 -5 -1 -10 5 -10 6 0 8 -5 4 -12 -4 -7 -3 -8 4 -4 6 4
9 13 5 21 -6 18 -10 19 -18 5z"/>
<path d="M2136 1821 c-4 -5 -2 -12 3 -15 5 -4 12 -2 15 3 4 5 2 12 -3 15 -5 4
-12 2 -15 -3z"/>
<path d="M2030 1707 c-25 -23 -45 -48 -45 -56 0 -17 42 -34 50 -20 4 5 -1 12
-10 15 -12 5 -13 9 -4 20 6 8 8 14 3 14 -4 0 7 16 26 35 46 48 35 43 -20 -8z
m-15 -37 c-3 -5 -12 -10 -18 -10 -7 0 -6 4 3 10 19 12 23 12 15 0z"/>
<path d="M1918 1599 c-21 -17 -35 -35 -32 -40 3 -6 11 -5 20 2 8 6 17 10 20 7
6 -6 -55 -73 -67 -73 -5 0 -9 -3 -9 -7 0 -5 0 -11 0 -14 0 -4 7 -1 15 6 8 6
19 9 24 6 5 -4 13 -1 17 5 4 8 3 9 -4 5 -14 -8 -15 3 -4 22 6 9 12 5 20 -13
11 -25 37 -26 29 -2 -2 7 3 17 11 23 12 9 12 13 2 19 -9 6 -11 4 -5 -5 5 -8 3
-11 -6 -8 -8 3 -13 13 -11 22 2 9 -4 19 -12 22 -12 5 -9 11 12 30 39 34 24 29
-20 -7z m19 -90 c2 -18 1 -20 -6 -9 -5 8 -8 17 -5 21 2 4 -1 10 -6 12 -6 3 -5
4 1 3 7 -1 14 -13 16 -27z"/>
<path d="M2330 1840 c0 -5 5 -10 10 -10 6 0 10 5 10 10 0 6 -4 10 -10 10 -5 0
-10 -4 -10 -10z"/>
<path d="M2355 1820 c-3 -5 -1 -10 4 -10 6 0 11 5 11 10 0 6 -2 10 -4 10 -3 0
-8 -4 -11 -10z"/>
<path d="M2225 1809 c-4 -6 -4 -13 -1 -16 3 -4 6 -1 6 6 0 7 5 9 10 6 6 -3 10
-1 10 4 0 14 -17 14 -25 0z"/>
<path d="M2310 1810 c0 -5 7 -7 15 -4 8 4 15 8 15 10 0 2 -7 4 -15 4 -8 0 -15
-4 -15 -10z"/>
<path d="M2387 1799 c7 -7 15 -10 18 -7 3 3 -2 9 -12 12 -14 6 -15 5 -6 -5z"/>
<path d="M2224 1775 c-18 -14 -18 -14 4 -8 12 3 22 9 22 14 0 12 -3 11 -26 -6z"/>
<path d="M2299 1788 c-7 -23 -5 -39 4 -45 7 -3 9 -3 5 2 -4 4 0 14 10 22 16
12 16 13 -2 6 -13 -4 -17 -3 -12 5 4 7 5 12 2 12 -3 0 -6 -1 -7 -2z"/>
<path d="M2255 1759 c-6 -8 -4 -10 5 -4 10 6 12 4 6 -11 -6 -15 -5 -17 5 -6 9
9 10 15 2 23 -8 8 -13 7 -18 -2z"/>
<path d="M2334 1758 c-4 -7 -4 -10 1 -6 4 4 15 2 24 -5 14 -11 14 -10 2 6 -16
20 -18 21 -27 5z"/>
<path d="M2176 1715 c4 -8 8 -15 10 -15 2 0 4 7 4 15 0 8 -4 15 -10 15 -5 0
-7 -7 -4 -15z"/>
<path d="M2286 1718 c3 -5 10 -6 15 -3 13 9 11 12 -6 12 -8 0 -12 -4 -9 -9z"/>
<path d="M2150 1700 c0 -5 5 -10 10 -10 6 0 10 5 10 10 0 6 -4 10 -10 10 -5 0
-10 -4 -10 -10z"/>
<path d="M2255 1689 c-4 -6 -5 -12 -2 -15 2 -3 7 2 10 11 7 17 1 20 -8 4z"/>
<path d="M2175 1679 c-4 -6 -4 -13 -1 -16 3 -4 6 -1 6 6 0 7 5 9 10 6 6 -4 8
-10 6 -14 -3 -4 1 -8 9 -8 13 0 12 4 -2 19 -19 21 -20 21 -28 7z"/>
<path d="M2376 1662 c-3 -5 1 -9 9 -9 8 0 12 4 9 9 -3 4 -7 8 -9 8 -2 0 -6 -4
-9 -8z"/>
<path d="M2145 1639 c-4 -6 -5 -12 -2 -15 2 -3 7 2 10 11 7 17 1 20 -8 4z"/>
<path d="M2286 1642 c-3 -5 1 -9 9 -9 8 0 12 4 9 9 -3 4 -7 8 -9 8 -2 0 -6 -4
-9 -8z"/>
<path d="M2062 1609 c-15 -24 -11 -32 21 -36 17 -2 19 -1 7 6 -8 5 -18 7 -22
5 -12 -8 -9 11 4 24 17 17 28 15 22 -5 -5 -15 -4 -15 4 -3 6 8 8 18 6 22 -9
14 -29 8 -42 -13z"/>
<path d="M2159 1593 c-13 -16 -12 -17 4 -4 9 7 17 15 17 17 0 8 -8 3 -21 -13z"/>
<path d="M2113 1566 c0 -15 22 -15 34 0 4 5 4 6 -1 2 -5 -4 -14 -3 -21 2 -8 7
-12 5 -12 -4z"/>
<path d="M2195 1560 c3 -5 8 -10 11 -10 2 0 4 5 4 10 0 6 -5 10 -11 10 -5 0
-7 -4 -4 -10z"/>
<path d="M2071 1552 c-1 -7 -6 -10 -13 -6 -6 4 -8 3 -5 -4 8 -12 32 -10 44 3
4 4 3 5 -4 2 -6 -4 -14 -1 -16 5 -4 10 -6 10 -6 0z"/>
<path d="M2040 1491 c0 -6 4 -13 10 -16 6 -3 7 1 4 9 -7 18 -14 21 -14 7z"/>
<path d="M1987 1476 c-4 -10 -3 -15 3 -11 6 3 10 1 10 -6 0 -7 3 -10 6 -6 3 3
2 13 -4 22 -8 16 -9 16 -15 1z"/>
<path d="M2109 1463 c-13 -16 -12 -17 4 -4 9 7 17 15 17 17 0 8 -8 3 -21 -13z"/>
<path d="M3230 1799 c0 -5 5 -7 10 -4 6 3 10 8 10 11 0 2 -4 4 -10 4 -5 0 -10
-5 -10 -11z"/>
<path d="M3059 1680 c-1 -5 -3 -14 -4 -20 -1 -5 -3 -15 -4 -21 -1 -8 -6 -8
-16 1 -8 7 -16 10 -16 6 -3 -12 -6 -21 -14 -39 -6 -15 -10 -16 -16 -5 -7 10
-9 10 -10 1 -1 -7 -2 -17 -3 -21 0 -5 -14 -20 -29 -33 -24 -21 -33 -38 -36
-71 -1 -5 -4 -7 -8 -7 -5 1 -15 1 -23 0 -13 -1 -13 -2 0 -11 9 -5 19 -5 27 2
7 6 13 7 13 2 0 -4 5 -3 11 3 14 14 41 5 32 -11 -4 -7 -1 -7 9 1 8 7 18 10 22
6 4 -4 4 1 0 11 -6 15 -4 17 7 11 11 -7 12 -6 2 7 -7 8 -10 18 -6 21 3 4 0 13
-7 22 -10 12 -9 16 5 21 9 4 12 9 7 13 -7 4 -5 13 4 25 10 14 14 16 14 5 0
-12 2 -12 10 1 9 13 10 13 10 0 0 -11 4 -9 12 5 12 21 22 85 13 85 -3 0 -6 -4
-6 -10z m-3 -52 c5 4 5 3 1 -2 -12 -15 -34 -15 -34 0 0 9 4 11 12 4 7 -5 16
-6 21 -2z m-75 -72 c-8 -10 -9 -16 -1 -21 5 -3 8 -18 6 -32 -5 -26 -16 -44
-16 -26 0 13 -33 13 -42 -1 -4 -6 -6 -1 -5 12 0 12 5 22 10 22 4 0 6 4 3 9 -4
5 6 19 21 30 33 24 40 26 24 7z"/>
<path d="M2948 1533 c-9 -17 -2 -36 13 -38 10 -2 15 4 14 18 -2 21 -20 35 -27
20z"/>
<path d="M3600 795 c-11 -13 -10 -14 4 -9 9 3 16 10 16 15 0 13 -6 11 -20 -6z"/>
<path d="M3226 701 c-4 -5 -2 -12 3 -15 5 -4 12 -2 15 3 4 5 2 12 -3 15 -5 4
-12 2 -15 -3z"/>
<path d="M993 635 c0 -8 4 -12 9 -9 5 3 6 10 3 15 -9 13 -12 11 -12 -6z"/>
<path d="M3776 4662 c-3 -4 4 -9 15 -9 23 -2 25 3 4 10 -8 4 -16 3 -19 -1z"/>
<path d="M3791 4587 c-8 -10 -7 -14 2 -14 8 0 14 6 14 14 0 7 -1 13 -2 13 -2
0 -8 -6 -14 -13z"/>
<path d="M3876 4562 c-3 -5 1 -9 9 -9 8 0 12 4 9 9 -3 4 -7 8 -9 8 -2 0 -6 -4
-9 -8z"/>
<path d="M3773 4536 c-3 -5 -1 -6 5 -2 5 3 12 1 14 -5 2 -7 8 -7 15 3 10 11 8
14 -8 14 -11 0 -23 -5 -26 -10z"/>
<path d="M3825 4520 c-3 -6 1 -7 9 -4 18 7 21 14 7 14 -6 0 -13 -4 -16 -10z"/>
<path d="M3890 4520 c0 -5 5 -10 11 -10 5 0 7 5 4 10 -3 6 -8 10 -11 10 -2 0
-4 -4 -4 -10z"/>
<path d="M3790 4502 c0 -12 22 -32 35 -32 5 0 2 5 -8 11 -9 6 -15 14 -12 20 4
5 1 9 -4 9 -6 0 -11 -4 -11 -8z"/>
<path d="M3764 4471 c0 -11 4 -17 8 -15 4 3 8 12 8 20 0 8 -4 14 -8 14 -4 0
-8 -9 -8 -19z"/>
<path d="M3834 4462 c-8 -5 -3 -14 15 -26 26 -20 26 -20 8 0 -9 12 -14 24 -10
27 8 9 1 9 -13 -1z"/>
<path d="M3810 4396 c0 -20 17 -29 26 -15 5 8 3 9 -6 4 -10 -6 -12 -4 -7 8 3
10 2 17 -3 17 -6 0 -10 -6 -10 -14z"/>
<path d="M3856 4393 c-6 -14 -5 -15 5 -6 7 7 10 15 7 18 -3 3 -9 -2 -12 -12z"/>
<path d="M3890 4380 c0 -5 5 -10 11 -10 5 0 7 5 4 10 -3 6 -8 10 -11 10 -2 0
-4 -4 -4 -10z"/>
<path d="M3830 4350 c0 -6 7 -10 15 -10 8 0 15 2 15 4 0 2 -7 6 -15 10 -8 3
-15 1 -15 -4z"/>
<path d="M3970 4336 c0 -2 8 -10 18 -17 15 -13 16 -12 3 4 -13 16 -21 21 -21
13z"/>
<path d="M3826 4318 c3 -5 10 -6 15 -3 13 9 11 12 -6 12 -8 0 -12 -4 -9 -9z"/>
<path d="M3791 4291 c-15 -26 -14 -29 9 -41 16 -9 18 -8 14 5 -3 8 -11 12 -17
8 -7 -4 -8 0 -4 11 4 10 7 20 7 22 0 2 5 4 10 4 6 0 9 -5 8 -11 -2 -6 4 -14
12 -16 12 -4 12 -3 2 5 -8 5 -13 13 -12 18 3 18 -19 14 -29 -5z"/>
<path d="M3875 4282 c3 -3 -1 -12 -7 -21 -8 -10 -4 -9 10 3 26 23 26 23 7 23
-8 0 -13 -3 -10 -5z"/>
<path d="M3764 4247 c1 -12 6 -21 10 -20 19 5 20 10 4 25 -17 17 -18 17 -14
-5z"/>
<path d="M3840 4215 c-7 -9 -8 -15 -2 -15 5 0 12 7 16 15 3 8 4 15 2 15 -2 0
-9 -7 -16 -15z"/>
<path d="M3820 4185 c0 -7 30 -13 34 -7 3 4 -4 9 -15 9 -10 1 -19 0 -19 -2z"/>
<path d="M3875 4162 c3 -3 0 -10 -5 -17 -7 -8 -5 -12 5 -12 8 0 13 3 10 5 -3
3 0 10 5 17 7 8 5 12 -5 12 -8 0 -13 -3 -10 -5z"/>
<path d="M3915 4161 c-3 -5 -2 -12 3 -15 5 -3 9 1 9 9 0 17 -3 19 -12 6z"/>
<path d="M3834 4142 c6 -11 -6 -16 -26 -13 -13 2 -9 -6 10 -20 9 -7 14 -9 10
-5 -4 5 0 14 9 21 13 9 13 14 3 20 -9 5 -11 4 -6 -3z"/>
<path d="M3841 4094 c-1 -6 5 -17 12 -23 10 -8 14 -7 14 4 0 8 -4 12 -8 9 -4
-2 -10 2 -12 8 -4 8 -6 9 -6 2z"/>
<path d="M3820 4066 c0 -2 7 -7 16 -10 8 -3 12 -2 9 4 -6 10 -25 14 -25 6z"/>
<path d="M3874 4028 c-19 -23 -19 -23 2 -5 11 9 24 14 29 10 4 -5 5 -2 1 5 -9
16 -10 16 -32 -10z"/>
<path d="M3935 4039 c-3 -4 2 -6 10 -5 21 3 28 13 10 13 -9 0 -18 -4 -20 -8z"/>
<path d="M3835 4000 c-8 -13 14 -52 26 -45 5 4 9 8 9 11 0 3 -5 2 -12 -2 -8
-5 -9 -2 -5 10 5 11 3 15 -5 10 -8 -5 -9 -2 -5 9 7 18 2 23 -8 7z"/>
<path d="M3875 3999 c-3 -4 2 -6 10 -5 21 3 28 13 10 13 -9 0 -18 -4 -20 -8z"/>
<path d="M3830 3929 c0 -5 5 -7 10 -4 6 3 10 8 10 11 0 2 -4 4 -10 4 -5 0 -10
-5 -10 -11z"/>
<path d="M3873 3923 c4 -3 2 -11 -3 -18 -7 -8 -6 -12 3 -12 7 0 14 9 14 19 1
10 -3 18 -9 18 -6 0 -8 -3 -5 -7z"/>
<path d="M3831 3875 c0 -5 3 -16 8 -23 7 -11 9 -10 14 3 4 9 3 14 -2 10 -5 -3
-12 1 -14 7 -3 7 -6 9 -6 3z"/>
<path d="M3804 3808 c-10 -12 -14 -18 -7 -15 6 4 14 1 16 -5 4 -10 6 -10 6 0
1 6 1 15 0 18 0 4 5 11 13 15 7 5 8 9 2 9 -6 0 -19 -10 -30 -22z"/>
<path d="M3839 3793 c-12 -16 -12 -17 2 -6 9 7 19 10 22 6 4 -3 7 -1 7 5 0 17
-16 15 -31 -5z"/>
<path d="M3817 3709 c7 -7 15 -10 18 -7 3 3 -2 9 -12 12 -14 6 -15 5 -6 -5z"/>
<path d="M3873 3603 c4 -3 2 -11 -3 -18 -7 -8 -6 -12 3 -12 7 0 14 9 14 19 1
10 -3 18 -9 18 -6 0 -8 -3 -5 -7z"/>
<path d="M3820 3586 c0 -2 7 -7 16 -10 8 -3 12 -2 9 4 -6 10 -25 14 -25 6z"/>
<path d="M3835 3519 c-4 -6 -5 -12 -2 -15 2 -3 7 2 10 11 7 17 1 20 -8 4z"/>
<path d="M3896 3487 c3 -10 9 -15 12 -12 3 3 0 11 -7 18 -10 9 -11 8 -5 -6z"/>
<path d="M3830 3450 c0 -5 7 -7 15 -4 8 4 15 8 15 10 0 2 -7 4 -15 4 -8 0 -15
-4 -15 -10z"/>
<path d="M3919 3408 c-5 -18 -6 -38 -1 -34 7 8 12 36 6 36 -2 0 -4 -1 -5 -2z"/>
<path d="M3830 3391 c0 -6 5 -13 12 -17 7 -5 8 -3 3 6 -6 10 -4 12 9 7 10 -4
15 -3 11 3 -8 13 -35 13 -35 1z"/>
<path d="M3950 3396 c0 -2 8 -10 18 -17 15 -13 16 -12 3 4 -13 16 -21 21 -21
13z"/>
<path d="M3804 3328 c-10 -12 -14 -18 -7 -15 6 4 14 1 16 -5 4 -10 6 -10 6 0
1 6 1 15 0 18 0 4 5 11 13 15 7 5 8 9 2 9 -6 0 -19 -10 -30 -22z"/>
<path d="M3845 3319 c5 -7 52 -6 59 2 3 2 -10 5 -29 5 -18 0 -32 -3 -30 -7z"/>
<path d="M3874 3228 l-19 -23 23 19 c12 11 22 21 22 23 0 8 -8 2 -26 -19z"/>
<path d="M3935 3239 c-3 -4 2 -6 10 -5 21 3 28 13 10 13 -9 0 -18 -4 -20 -8z"/>
<path d="M3817 3229 c7 -7 15 -10 18 -7 3 3 -2 9 -12 12 -14 6 -15 5 -6 -5z"/>
<path d="M3847 3199 c7 -7 15 -10 18 -7 3 3 -2 9 -12 12 -14 6 -15 5 -6 -5z"/>
<path d="M3884 3202 c4 -3 14 -7 22 -8 9 -1 13 0 10 4 -4 3 -14 7 -22 8 -9 1
-13 0 -10 -4z"/>
<path d="M3936 3158 c3 -5 10 -6 15 -3 13 9 11 12 -6 12 -8 0 -12 -4 -9 -9z"/>
<path d="M3830 3151 c0 -6 5 -13 12 -17 7 -5 8 -3 3 6 -6 10 -4 12 9 7 10 -4
15 -3 11 3 -8 13 -35 13 -35 1z"/>
<path d="M3920 3120 c-9 -6 -10 -10 -3 -10 6 0 15 5 18 10 8 12 4 12 -15 0z"/>
<path d="M3845 3079 c5 -7 52 -6 59 2 3 2 -10 5 -29 5 -18 0 -32 -3 -30 -7z"/>
<path d="M3848 3043 c-21 -5 -23 -19 -6 -29 7 -5 8 -3 3 6 -6 9 -4 12 7 8 9
-4 15 0 15 8 0 8 -1 13 -1 13 -1 -1 -9 -3 -18 -6z"/>
<path d="M3959 3013 c-13 -16 -12 -17 4 -4 16 13 21 21 13 21 -2 0 -10 -8 -17
-17z"/>
<path d="M3874 2988 l-19 -23 23 19 c21 18 27 26 19 26 -2 0 -12 -10 -23 -22z"/>
<path d="M3830 2971 c0 -5 5 -13 10 -16 6 -3 10 -2 10 4 0 5 -4 13 -10 16 -5
3 -10 2 -10 -4z"/>
<path d="M3886 2918 c3 -5 10 -6 15 -3 13 9 11 12 -6 12 -8 0 -12 -4 -9 -9z"/>
<path d="M3830 2909 c0 -5 5 -7 10 -4 6 3 10 8 10 11 0 2 -4 4 -10 4 -5 0 -10
-5 -10 -11z"/>
<path d="M3850 2890 c-9 -6 -10 -10 -3 -10 6 0 15 5 18 10 8 12 4 12 -15 0z"/>
<path d="M3839 2833 c-12 -16 -12 -17 2 -6 9 7 19 10 22 6 4 -3 7 -1 7 5 0 17
-16 15 -31 -5z"/>
<path d="M3845 2770 c-16 -7 -17 -9 -3 -9 9 -1 20 4 23 9 7 11 7 11 -20 0z"/>
<path d="M3801 2735 c-1 -17 17 -38 33 -41 9 -1 14 2 10 7 -3 5 -10 6 -16 3
-8 -5 -9 -1 -5 10 4 9 3 15 -2 11 -5 -3 -12 1 -14 7 -3 7 -6 9 -6 3z"/>
<path d="M3846 2718 c3 -4 9 -8 15 -8 5 0 9 4 9 8 0 5 -7 9 -15 9 -8 0 -12 -4
-9 -9z"/>
<path d="M3830 2671 c0 -6 5 -13 12 -17 7 -5 8 -3 3 6 -6 10 -4 12 9 7 10 -4
15 -3 11 3 -8 13 -35 13 -35 1z"/>
<path d="M3846 2598 c3 -4 9 -8 15 -8 5 0 9 4 9 8 0 5 -7 9 -15 9 -8 0 -12 -4
-9 -9z"/>
<path d="M3820 2560 c0 -5 5 -10 11 -10 5 0 7 -5 3 -12 -4 -7 -3 -8 4 -4 6 4
9 13 5 21 -6 17 -23 20 -23 5z"/>
<path d="M3764 2500 c0 -13 4 -16 10 -10 7 7 7 13 0 20 -6 6 -10 3 -10 -10z"/>
<path d="M3868 2503 c7 -3 16 -2 19 1 4 3 -2 6 -13 5 -11 0 -14 -3 -6 -6z"/>
<path d="M3786 2445 c-9 -14 -12 -25 -7 -25 5 0 13 9 16 20 3 11 11 20 16 20
5 0 3 -13 -6 -30 -9 -17 -21 -27 -29 -24 -7 3 -17 -3 -20 -13 -6 -14 -4 -15 5
-6 6 6 17 9 23 7 13 -5 49 60 39 70 -11 11 -21 6 -37 -19z"/>
<path d="M3873 2455 c0 -8 4 -12 9 -9 5 3 6 10 3 15 -9 13 -12 11 -12 -6z"/>
<path d="M3827 2393 c3 -7 9 -10 14 -7 14 8 11 21 -5 21 -8 0 -12 -6 -9 -14z"/>
<path d="M3890 2380 c0 -5 5 -10 11 -10 5 0 7 5 4 10 -3 6 -8 10 -11 10 -2 0
-4 -4 -4 -10z"/>
<path d="M3792 2361 c-11 -6 -10 -10 4 -15 9 -3 19 -4 22 -1 3 3 0 5 -7 5 -7
0 -9 5 -6 10 7 12 4 12 -13 1z"/>
<path d="M3820 2366 c0 -2 8 -10 18 -17 15 -13 16 -12 3 4 -13 16 -21 21 -21
13z"/>
<path d="M3770 2329 c0 -5 5 -7 10 -4 6 3 10 8 10 11 0 2 -4 4 -10 4 -5 0 -10
-5 -10 -11z"/>
<path d="M3795 2320 c-3 -5 -1 -10 4 -10 6 0 11 5 11 10 0 6 -2 10 -4 10 -3 0
-8 -4 -11 -10z"/>
<path d="M3827 2279 c7 -7 15 -10 18 -7 3 3 -2 9 -12 12 -14 6 -15 5 -6 -5z"/>
<path d="M3794 2272 c3 -5 0 -13 -6 -15 -9 -4 -10 -6 -1 -6 17 -1 25 16 12 25
-7 4 -9 3 -5 -4z"/>
<path d="M3748 2223 c6 -2 18 -2 25 0 6 3 1 5 -13 5 -14 0 -19 -2 -12 -5z"/>
<path d="M3793 2215 c0 -8 4 -12 9 -9 5 3 6 10 3 15 -9 13 -12 11 -12 -6z"/>
<path d="M3716 2205 c-3 -8 -1 -15 4 -15 6 0 10 7 10 15 0 8 -2 15 -4 15 -2 0
-6 -7 -10 -15z"/>
<path d="M3535 2160 c-16 -17 -16 -20 -3 -15 9 4 19 13 22 21 7 19 2 18 -19
-6z"/>
<path d="M3756 2153 c-6 -14 -5 -15 5 -6 7 7 10 15 7 18 -3 3 -9 -2 -12 -12z"/>
<path d="M3720 2140 c-9 -6 -10 -10 -3 -10 6 0 15 5 18 10 8 12 4 12 -15 0z"/>
<path d="M3668 2133 c6 -2 18 -2 25 0 6 3 1 5 -13 5 -14 0 -19 -2 -12 -5z"/>
<path d="M3655 2100 c-3 -6 1 -7 9 -4 18 7 21 14 7 14 -6 0 -13 -4 -16 -10z"/>
<path d="M3730 2099 c0 -5 5 -7 10 -4 6 3 10 8 10 11 0 2 -4 4 -10 4 -5 0 -10
-5 -10 -11z"/>
<path d="M3694 2080 c0 -13 4 -16 10 -10 7 7 7 13 0 20 -6 6 -10 3 -10 -10z"/>
<path d="M3628 2083 c6 -2 10 -8 8 -12 -3 -4 4 -7 15 -7 19 0 19 1 3 13 -10 7
-23 13 -28 12 -6 0 -5 -3 2 -6z"/>
<path d="M3570 2045 c0 -8 4 -15 8 -15 5 0 9 7 9 15 0 8 -4 15 -9 15 -4 0 -8
-7 -8 -15z"/>
<path d="M3606 2038 c3 -4 9 -8 15 -8 5 0 9 4 9 8 0 5 -7 9 -15 9 -8 0 -12 -4
-9 -9z"/>
<path d="M3646 2038 c3 -5 10 -6 15 -3 13 9 11 12 -6 12 -8 0 -12 -4 -9 -9z"/>
<path d="M3695 2020 c3 -5 8 -10 11 -10 2 0 4 5 4 10 0 6 -5 10 -11 10 -5 0
-7 -4 -4 -10z"/>
<path d="M3530 2000 c0 -5 5 -10 10 -10 6 0 10 5 10 10 0 6 -4 10 -10 10 -5 0
-10 -4 -10 -10z"/>
<path d="M3508 1973 c6 -2 9 -10 6 -15 -4 -7 -2 -8 4 -4 18 11 14 26 -5 25
-11 0 -13 -3 -5 -6z"/>
<path d="M3446 1936 c5 -13 4 -17 -4 -12 -8 5 -10 2 -5 -10 6 -15 7 -15 16 1
6 11 5 21 -3 28 -8 9 -9 7 -4 -7z"/>
<path d="M3610 1940 c0 -5 5 -10 11 -10 5 0 7 5 4 10 -3 6 -8 10 -11 10 -2 0
-4 -4 -4 -10z"/>
<path d="M3296 1913 c-6 -14 -5 -15 5 -6 7 7 10 15 7 18 -3 3 -9 -2 -12 -12z"/>
<path d="M3496 1891 c-3 -5 -22 -7 -42 -5 -20 2 -34 0 -30 -3 3 -3 23 -7 44
-8 27 -1 39 2 39 12 0 15 -4 17 -11 4z"/>
<path d="M3396 1875 c4 -8 8 -15 10 -15 2 0 4 7 4 15 0 8 -4 15 -10 15 -5 0
-7 -7 -4 -15z"/>
<path d="M3513 1845 c0 -8 4 -15 9 -15 4 0 8 4 8 9 0 6 -4 12 -8 15 -5 3 -9
-1 -9 -9z"/>
<path d="M3390 1838 c0 -11 12 -10 30 2 12 7 10 9 -8 7 -12 0 -22 -5 -22 -9z"/>
<path d="M3368 1823 c6 -2 9 -10 6 -15 -4 -7 -2 -8 5 -4 13 9 5 26 -12 25 -9
0 -8 -2 1 -6z"/>
<path d="M3400 1800 c-9 -6 -10 -10 -3 -10 6 0 15 5 18 10 8 12 4 12 -15 0z"/>
<path d="M3350 1791 c0 -5 7 -12 16 -15 14 -5 15 -4 4 9 -14 17 -20 19 -20 6z"/>
<path d="M3320 1760 c18 -12 30 -13 30 -2 0 4 -10 9 -22 9 -18 2 -20 0 -8 -7z"/>
<path d="M3133 1745 c0 -8 4 -12 9 -9 5 3 6 10 3 15 -9 13 -12 11 -12 -6z"/>
<path d="M3270 1750 c-8 -5 -12 -12 -9 -15 4 -3 12 1 19 10 14 17 11 19 -10 5z"/>
<path d="M3297 1743 c-3 -5 0 -17 4 -28 9 -19 9 -19 5 2 -2 12 1 24 8 27 8 3
8 5 -1 5 -6 1 -14 -2 -16 -6z"/>
<path d="M3395 1720 c3 -5 8 -10 11 -10 2 0 4 5 4 10 0 6 -5 10 -11 10 -5 0
-7 -4 -4 -10z"/>
<path d="M3350 1700 c0 -5 5 -10 11 -10 5 0 7 5 4 10 -3 6 -8 10 -11 10 -2 0
-4 -4 -4 -10z"/>
<path d="M3296 1673 c-6 -14 -5 -15 5 -6 7 7 10 15 7 18 -3 3 -9 -2 -12 -12z"/>
<path d="M3240 1676 c0 -2 7 -7 16 -10 8 -3 12 -2 9 4 -6 10 -25 14 -25 6z"/>
<path d="M3231 1647 c2 -2 11 -8 20 -15 12 -9 16 -9 16 1 0 7 -9 14 -20 14
-11 1 -18 1 -16 0z"/>
<path d="M3306 1638 c3 -5 10 -6 15 -3 13 9 11 12 -6 12 -8 0 -12 -4 -9 -9z"/>
<path d="M3215 1619 c-5 -8 -4 -10 3 -5 12 7 15 -4 15 -46 0 -10 3 -15 8 -13
9 6 2 56 -10 68 -5 5 -12 3 -16 -4z"/>
<path d="M3130 1600 c-8 -5 -10 -10 -5 -10 6 0 17 5 25 10 8 5 11 10 5 10 -5
0 -17 -5 -25 -10z"/>
<path d="M3151 1580 c3 -30 -1 -41 -13 -34 -7 4 -8 3 -4 -4 10 -16 14 -15 25
6 6 12 6 23 0 33 -8 12 -10 12 -8 -1z"/>
<path d="M3190 1582 c0 -5 7 -9 15 -9 8 0 12 4 9 9 -3 4 -9 8 -15 8 -5 0 -9
-4 -9 -8z"/>
<path d="M3274 1576 c1 -8 5 -18 8 -22 4 -3 5 1 4 10 -1 8 -5 18 -8 22 -4 3
-5 -1 -4 -10z"/>
<path d="M3110 1530 c0 -5 5 -10 11 -10 5 0 7 5 4 10 -3 6 -8 10 -11 10 -2 0
-4 -4 -4 -10z"/>
<path d="M3239 1538 c-5 -18 -6 -38 -1 -34 7 8 12 36 6 36 -2 0 -4 -1 -5 -2z"/>
<path d="M3160 1520 c-9 -6 -10 -10 -3 -10 6 0 15 5 18 10 8 12 4 12 -15 0z"/>
<path d="M3094 1512 c3 -5 0 -13 -6 -15 -9 -4 -10 -6 -1 -6 17 -1 25 16 12 25
-7 4 -9 3 -5 -4z"/>
<path d="M3120 1495 c-7 -9 -10 -18 -7 -22 4 -3 9 2 13 11 3 9 11 13 17 9 6
-3 7 -1 3 5 -9 15 -11 15 -26 -3z"/>
<path d="M3168 1485 c-21 -28 -22 -35 -6 -35 6 0 8 3 5 7 -4 3 0 15 10 25 9
10 14 20 12 22 -2 2 -12 -6 -21 -19z"/>
<path d="M3060 1465 c-10 -12 -8 -13 10 -10 29 6 34 11 16 18 -8 3 -20 0 -26
-8z"/>
<path d="M4507 1183 c7 -2 9 -11 6 -19 -3 -8 1 -14 8 -14 7 0 9 3 6 7 -4 3 -3
11 3 17 6 8 2 12 -13 13 -12 0 -17 -1 -10 -4z"/>
<path d="M4470 1150 c0 -5 5 -10 11 -10 5 0 7 5 4 10 -3 6 -8 10 -11 10 -2 0
-4 -4 -4 -10z"/>
<path d="M4490 1130 c-9 -6 -10 -10 -3 -10 6 0 15 5 18 10 8 12 4 12 -15 0z"/>
<path d="M4490 1107 c0 -2 13 -13 28 -24 20 -15 29 -17 29 -8 0 8 -3 13 -6 12
-3 -1 -16 4 -28 11 -13 7 -23 11 -23 9z"/>
<path d="M4487 1079 c7 -7 15 -10 18 -7 3 3 -2 9 -12 12 -14 6 -15 5 -6 -5z"/>
<path d="M4470 1061 c0 -5 5 -13 10 -16 6 -3 10 -2 10 4 0 5 -4 13 -10 16 -5
3 -10 2 -10 -4z"/>
<path d="M4516 1041 c-3 -4 6 -7 19 -7 14 0 22 2 19 5 -8 8 -34 10 -38 2z"/>
<path d="M4455 1010 c-9 -15 4 -30 23 -29 15 1 15 2 0 6 -10 2 -18 9 -18 14 0
6 10 8 23 4 17 -5 19 -4 7 4 -19 13 -27 14 -35 1z"/>
<path d="M4533 1005 c0 -8 4 -15 9 -15 4 0 8 4 8 9 0 6 -4 12 -8 15 -5 3 -9
-1 -9 -9z"/>
<path d="M4550 958 c0 -4 4 -8 9 -8 6 0 12 4 15 8 3 5 -1 9 -9 9 -8 0 -15 -4
-15 -9z"/>
<path d="M4430 915 c0 -8 2 -15 4 -15 2 0 6 7 10 15 3 8 1 15 -4 15 -6 0 -10
-7 -10 -15z"/>
<path d="M4476 908 c5 -8 2 -9 -10 -5 -9 4 -15 3 -11 -2 3 -6 14 -9 25 -8 14
1 16 4 8 14 -13 16 -22 17 -12 1z"/>
<path d="M3575 870 c-2 -3 9 -6 25 -6 17 0 27 2 25 5 -8 7 -45 9 -50 1z"/>
<path d="M1299 863 c-1 -4 -2 -14 -3 -21 0 -7 -8 -17 -16 -22 -13 -8 -13 -10
-1 -10 11 0 10 -4 -4 -14 -10 -7 -19 -24 -20 -37 -3 -32 13 -72 25 -64 5 3 10
2 10 -4 0 -5 -5 -12 -10 -14 -6 -3 -5 -4 2 -3 7 2 13 9 13 17 0 8 -6 13 -13
11 -9 -2 -12 6 -10 20 2 19 9 23 38 23 31 0 35 3 33 25 l-3 25 20 -24 c11 -13
20 -19 20 -14 0 5 -6 15 -12 22 -11 11 -10 13 4 8 10 -3 24 1 33 9 8 9 15 11
15 5 0 -6 7 -11 15 -11 8 0 15 -5 15 -11 0 -6 -7 -9 -15 -5 -20 7 -45 -3 -45
-19 0 -20 20 -29 33 -15 9 10 8 12 -6 6 -13 -4 -17 -2 -14 6 6 19 48 16 80 -5
15 -10 27 -14 27 -8 0 6 -4 11 -10 11 -5 0 -9 6 -7 13 1 6 -6 11 -15 11 -10
-1 -18 2 -18 6 0 4 -11 23 -24 43 -13 19 -22 37 -20 39 2 3 -12 4 -31 3 -18 0
-37 -4 -41 -7 -4 -4 -15 -3 -25 3 -11 5 -20 6 -20 2z m108 -16 c7 -5 18 -18
25 -30 10 -19 9 -20 -4 -9 -13 10 -18 9 -28 -3 -9 -11 -16 -12 -25 -5 -7 6
-15 7 -17 3 -3 -4 -3 -2 -1 5 1 8 -2 10 -9 6 -7 -5 -8 -3 -3 6 6 9 4 11 -4 5
-10 -6 -11 -3 -2 12 10 20 44 25 68 10z m-86 -15 c-11 -4 -11 -6 0 -13 17 -10
22 -72 5 -66 -10 4 -10 10 -3 39 1 3 -2 5 -8 5 -5 -1 -10 -6 -11 -12 0 -5 -2
-16 -2 -24 -1 -8 -5 -11 -9 -8 -3 4 -11 2 -18 -3 -8 -7 -11 -4 -10 10 1 11 10
27 21 35 10 8 15 15 10 15 -5 0 -1 9 9 20 10 11 21 17 24 14 3 -4 0 -9 -8 -12z"/>
<path d="M1350 843 c0 -2 8 -13 19 -24 16 -17 19 -18 24 -4 10 26 8 29 -18 31
-14 0 -25 -1 -25 -3z m50 -9 c0 -8 -19 -13 -24 -6 -3 5 1 9 9 9 8 0 15 -2 15
-3z"/>
<path d="M1280 780 c-9 -6 -10 -10 -3 -10 6 0 15 5 18 10 8 12 4 12 -15 0z"/>
<path d="M4473 847 c0 -8 6 -14 14 -14 9 0 10 4 2 14 -6 7 -12 13 -14 13 -1 0
-2 -6 -2 -13z"/>
<path d="M4514 836 c1 -8 5 -18 8 -22 4 -3 5 1 4 10 -1 8 -5 18 -8 22 -4 3 -5
-1 -4 -10z"/>
<path d="M4389 817 c-9 -7 -14 -19 -12 -27 3 -10 -1 -8 -11 4 -13 16 -16 17
-16 4 0 -23 29 -31 37 -10 4 9 11 20 17 24 6 4 8 9 6 12 -3 2 -12 -1 -21 -7z"/>
<path d="M4420 802 c0 -4 10 -13 23 -21 22 -14 22 -14 3 8 -20 22 -26 25 -26
13z"/>
<path d="M3804 785 c8 -9 13 -22 10 -29 -7 -18 12 -30 22 -15 5 8 3 9 -6 4 -8
-5 -11 -3 -8 6 6 17 -9 49 -23 49 -6 0 -4 -7 5 -15z"/>
<path d="M4474 782 c4 -3 14 -7 22 -8 9 -1 13 0 10 4 -4 3 -14 7 -22 8 -9 1
-13 0 -10 -4z"/>
<path d="M3643 774 c-7 -3 -9 -12 -6 -20 3 -10 0 -12 -10 -8 -8 3 -18 1 -22
-5 -4 -7 2 -10 16 -8 13 2 25 10 27 18 3 8 10 17 16 21 12 8 -2 9 -21 2z"/>
<path d="M3676 765 c-9 -26 -7 -32 5 -12 6 10 9 21 6 23 -2 3 -7 -2 -11 -11z"/>
<path d="M3786 765 c-9 -26 -7 -32 5 -12 6 10 9 21 6 23 -2 3 -7 -2 -11 -11z"/>
<path d="M4393 755 c0 -8 4 -12 9 -9 4 3 8 9 8 15 0 5 -4 9 -8 9 -5 0 -9 -7
-9 -15z"/>
<path d="M3757 753 c-10 -9 -9 -23 1 -23 5 0 9 7 9 15 0 17 -1 18 -10 8z"/>
<path d="M1431 729 c-13 -10 -20 -19 -15 -19 4 0 16 8 27 18 20 16 20 16 13
-3 -6 -16 -5 -18 5 -7 23 22 -4 32 -30 11z"/>
<path d="M3694 742 c3 -5 0 -13 -6 -15 -9 -4 -10 -6 -1 -6 17 -1 25 16 12 25
-7 4 -9 3 -5 -4z"/>
<path d="M1345 732 c-16 -10 -12 -35 5 -39 11 -3 11 -2 3 4 -17 12 1 37 22 30
9 -4 14 -3 10 3 -7 12 -26 13 -40 2z"/>
<path d="M1526 727 c3 -10 9 -15 12 -12 3 3 0 11 -7 18 -10 9 -11 8 -5 -6z"/>
<path d="M3866 725 c-9 -26 -7 -32 5 -12 6 10 9 21 6 23 -2 3 -7 -2 -11 -11z"/>
<path d="M4350 729 c0 -5 -4 -7 -10 -4 -6 4 -7 -1 -3 -11 5 -13 3 -15 -7 -9
-9 6 -11 4 -5 -5 6 -10 11 -9 22 5 13 19 17 35 8 35 -3 0 -5 -5 -5 -11z"/>
<path d="M4416 727 c3 -10 9 -15 12 -12 3 3 0 11 -7 18 -10 9 -11 8 -5 -6z"/>
<path d="M1300 720 c0 -5 5 -10 10 -10 6 0 10 5 10 10 0 6 -4 10 -10 10 -5 0
-10 -4 -10 -10z"/>
<path d="M1476 715 c-3 -8 0 -17 6 -21 6 -4 8 -3 4 4 -3 5 -1 12 6 14 8 3 9 6
1 11 -6 4 -13 0 -17 -8z"/>
<path d="M3640 720 c-12 -7 -10 -9 8 -7 12 0 22 5 22 9 0 11 -12 10 -30 -2z"/>
<path d="M3714 718 c-4 -7 -4 -10 1 -6 4 4 15 2 24 -5 14 -11 14 -10 2 6 -16
20 -18 21 -27 5z"/>
<path d="M4386 722 c-3 -5 1 -9 9 -9 8 0 12 4 9 9 -3 4 -7 8 -9 8 -2 0 -6 -4
-9 -8z"/>
<path d="M4446 718 c3 -5 10 -6 15 -3 13 9 11 12 -6 12 -8 0 -12 -4 -9 -9z"/>
<path d="M3032 700 c-16 -26 -15 -33 2 -27 7 3 23 -1 34 -9 18 -12 21 -12 26
3 4 9 0 23 -9 32 -12 12 -16 13 -13 2 2 -7 -3 -16 -11 -19 -8 -2 -11 0 -8 5 3
5 2 14 -2 21 -4 8 -10 5 -19 -8z m58 -20 c0 -5 -5 -10 -11 -10 -5 0 -7 5 -4
10 3 6 8 10 11 10 2 0 4 -4 4 -10z"/>
<path d="M3590 712 c0 -6 9 -12 20 -15 11 -3 20 -3 20 -1 0 2 -9 8 -20 14 -11
6 -20 7 -20 2z"/>
<path d="M1014 699 c-4 -7 52 -6 60 2 3 2 -9 5 -25 4 -17 0 -33 -3 -35 -6z"/>
<path d="M1375 700 c-3 -6 1 -7 9 -4 18 7 21 14 7 14 -6 0 -13 -4 -16 -10z"/>
<path d="M1550 705 c5 -21 -1 -29 -10 -15 -7 12 -9 10 -7 -7 1 -15 5 -19 13
-13 6 6 13 7 17 4 3 -3 4 1 3 10 -1 8 -6 19 -10 23 -4 4 -7 4 -6 -2z"/>
<path d="M1675 699 c-4 -6 -5 -12 -2 -15 2 -3 7 2 10 11 7 17 1 20 -8 4z"/>
<path d="M1730 696 c-6 -8 -18 -12 -26 -9 -8 3 -14 3 -14 0 0 -15 31 -13 46 4
9 10 15 19 12 19 -3 0 -11 -6 -18 -14z"/>
<path d="M1789 689 c12 -10 17 -20 12 -23 -5 -4 -16 1 -24 9 -17 17 -27 19
-27 7 0 -5 10 -13 22 -19 17 -7 31 -4 65 15 24 13 43 26 43 28 0 8 -24 -1 -38
-13 -7 -7 -17 -13 -22 -13 -5 0 -8 6 -6 13 1 6 1 9 -1 5 -3 -5 -9 -8 -14 -8
-6 0 -8 4 -5 8 3 5 -2 9 -11 9 -13 0 -11 -4 6 -18z"/>
<path d="M2070 695 c-7 -9 -10 -18 -6 -22 3 -3 6 -1 6 7 0 10 3 10 16 -1 15
-12 14 -14 -6 -19 -13 -3 -25 -11 -26 -18 -1 -7 0 -8 3 -2 2 5 12 10 21 10 9
0 26 9 38 21 12 12 27 18 33 14 18 -10 12 -25 -6 -18 -15 5 -16 3 -5 -8 17
-19 40 4 24 24 -7 8 -8 17 -4 21 4 4 -5 2 -20 -5 -16 -7 -28 -16 -28 -21 0 -5
-6 -3 -14 4 -8 7 -12 16 -9 21 8 13 -4 7 -17 -8z"/>
<path d="M2174 697 c3 -10 6 -22 6 -25 0 -4 4 0 10 8 5 8 13 11 17 6 4 -4 -2
-15 -14 -23 -25 -17 -30 -33 -11 -33 6 0 8 3 5 7 -4 3 2 12 12 20 22 15 24 50
4 50 -7 0 -13 -5 -13 -11 0 -6 -5 -4 -11 4 -9 12 -10 12 -5 -3z"/>
<path d="M2281 687 c11 -10 18 -22 14 -25 -3 -4 -10 0 -15 8 -6 9 -10 10 -10
3 0 -21 22 -26 38 -8 10 10 12 15 5 11 -6 -3 -14 2 -17 12 -4 10 -13 19 -21
19 -12 0 -10 -5 6 -20z"/>
<path d="M2318 690 c20 -20 25 -19 17 2 -3 8 -12 15 -20 15 -12 0 -11 -4 3
-17z"/>
<path d="M2360 695 c-14 -17 -7 -45 12 -44 10 0 10 2 1 6 -7 2 -13 12 -13 21
0 15 2 15 10 2 7 -12 9 -10 7 8 -2 26 -1 26 -17 7z"/>
<path d="M2430 696 c7 -7 13 -7 20 0 6 6 3 10 -10 10 -13 0 -16 -4 -10 -10z"/>
<path d="M2459 687 c-17 -22 -17 -22 -38 -3 -12 11 -24 16 -28 13 -3 -4 -1 -7
5 -7 7 0 12 -5 12 -11 0 -5 -4 -7 -10 -4 -5 3 -10 2 -10 -3 0 -5 21 -8 48 -7
32 1 55 -4 74 -17 14 -10 30 -18 35 -18 4 0 1 5 -8 10 -9 5 -14 21 -13 39 1
17 -2 31 -7 31 -5 0 -9 -6 -9 -12 0 -9 -4 -8 -11 2 -9 13 -10 13 -6 0 2 -8 10
-14 16 -12 6 1 11 -5 11 -13 0 -12 -4 -13 -19 -6 -10 6 -22 7 -26 3 -4 -4 -4
3 -1 16 9 27 6 27 -15 -1z"/>
<path d="M2610 703 c0 -6 12 -20 28 -31 22 -16 29 -17 40 -6 16 17 16 32 0 16
-18 -18 -32 -14 -17 5 8 9 9 14 2 10 -6 -4 -13 -1 -16 5 -2 7 -8 9 -13 5 -5
-4 -2 -12 6 -17 9 -6 10 -10 3 -10 -7 0 -17 8 -22 18 -6 9 -11 12 -11 5z"/>
<path d="M2709 708 c0 -2 -2 -16 -4 -32 -4 -28 -4 -29 11 -7 8 11 20 21 26 21
7 0 6 -6 -2 -15 -9 -10 -9 -15 -1 -15 10 0 15 14 12 33 -2 11 32 4 41 -8 5 -6
12 -5 20 3 7 8 9 13 3 12 -5 -2 -12 -1 -15 0 -15 7 -70 6 -70 -1 0 -5 -5 -9
-11 -9 -5 0 -7 5 -4 10 3 6 4 10 1 10 -3 0 -6 -1 -7 -2z"/>
<path d="M2854 697 c3 -11 1 -17 -7 -16 -6 1 -23 -2 -36 -8 -19 -8 -21 -11 -8
-16 8 -3 18 0 20 7 7 19 47 13 63 -9 8 -10 14 -14 14 -8 0 6 -7 16 -15 23 -14
11 -13 14 1 25 15 11 15 12 0 12 -9 0 -16 -5 -16 -11 0 -6 -5 -4 -11 4 -9 13
-10 12 -5 -3z"/>
<path d="M2906 694 c-9 -23 -8 -27 8 -21 8 3 22 0 32 -8 16 -11 20 -10 32 6 7
11 17 17 22 14 4 -3 11 2 14 10 4 13 2 13 -14 5 -23 -12 -33 -13 -26 -2 3 5
-2 9 -10 9 -10 0 -11 -4 -4 -11 12 -12 13 -26 2 -26 -5 0 -14 10 -21 23 -6 12
-10 15 -7 6 2 -9 -2 -16 -9 -16 -7 0 -11 6 -8 14 3 7 3 13 0 13 -3 0 -8 -7
-11 -16z"/>
<path d="M3440 700 c-8 -5 -12 -11 -9 -14 2 -3 11 -1 19 4 8 5 12 11 9 14 -2
3 -11 1 -19 -4z"/>
<path d="M3676 702 c-3 -5 1 -9 9 -9 8 0 12 4 9 9 -3 4 -7 8 -9 8 -2 0 -6 -4
-9 -8z"/>
<path d="M3996 701 c-3 -5 1 -11 9 -14 9 -4 12 -1 8 9 -6 16 -10 17 -17 5z"/>
<path d="M4033 687 c1 -15 5 -27 10 -27 10 0 9 22 -2 39 -7 10 -9 7 -8 -12z"/>
<path d="M4066 688 c10 -14 21 -24 23 -22 3 3 -6 15 -18 27 l-24 22 19 -27z"/>
<path d="M4093 692 c9 -10 14 -22 10 -27 -5 -4 -3 -5 4 -1 15 8 7 32 -15 41
-14 5 -14 4 1 -13z"/>
<path d="M4120 702 c0 -6 5 -14 10 -17 6 -4 8 -10 6 -14 -3 -4 1 -8 9 -8 12 0
12 4 -2 21 -10 12 -19 23 -20 25 -2 2 -3 -1 -3 -7z"/>
<path d="M4150 695 c6 -8 19 -11 28 -8 15 6 15 5 3 -10 -7 -9 -12 -17 -10 -18
2 0 15 -2 29 -5 22 -3 23 -2 7 7 -18 10 -18 12 0 32 12 15 13 18 2 9 -9 -6
-18 -9 -21 -7 -3 3 -15 8 -28 10 -18 3 -20 2 -10 -10z"/>
<path d="M1310 696 c0 -2 8 -10 18 -17 15 -13 16 -12 3 4 -13 16 -21 21 -21
13z"/>
<path d="M1433 687 c0 -7 11 -13 23 -13 20 0 25 11 6 11 -4 0 -12 3 -18 7 -6
4 -11 1 -11 -5z"/>
<path d="M1581 697 c2 -1 11 -8 21 -15 12 -10 18 -10 24 -1 4 8 3 9 -4 5 -7
-4 -12 -2 -12 3 0 6 -7 11 -17 11 -9 0 -14 -1 -12 -3z"/>
<path d="M2242 686 c7 -8 15 -12 17 -11 5 6 -10 25 -20 25 -5 0 -4 -6 3 -14z"/>
<path d="M3973 681 c0 -11 5 -18 9 -15 4 3 5 11 1 19 -7 21 -12 19 -10 -4z"/>
<path d="M1222 670 c-7 -11 -10 -20 -7 -20 3 0 14 9 25 20 12 12 15 20 7 20
-7 0 -18 -9 -25 -20z"/>
<path d="M1639 673 c-13 -16 -12 -17 4 -4 16 13 21 21 13 21 -2 0 -10 -8 -17
-17z"/>
<path d="M2590 683 c0 -5 9 -15 19 -23 11 -7 17 -18 14 -23 -3 -6 -1 -7 5 -3
5 3 13 0 15 -6 4 -9 5 -8 6 2 0 8 -13 25 -30 38 -16 13 -29 20 -29 15z"/>
<path d="M3454 674 c-19 -15 -19 -15 1 -6 11 5 27 12 35 15 13 5 13 6 -1 6 -8
1 -24 -6 -35 -15z"/>
<path d="M3572 684 c3 -3 12 -6 20 -8 7 -1 20 -5 28 -10 12 -7 13 -6 3 4 -7 8
-23 15 -35 17 -12 2 -19 1 -16 -3z"/>
<path d="M3814 682 c4 -3 14 -7 22 -8 9 -1 13 0 10 4 -4 3 -14 7 -22 8 -9 1
-13 0 -10 -4z"/>
<path d="M3860 686 c0 -2 8 -10 18 -17 15 -13 16 -12 3 4 -13 16 -21 21 -21
13z"/>
<path d="M4215 680 c-5 -7 2 -9 21 -4 18 5 25 3 20 -4 -4 -6 4 -16 16 -22 20
-9 21 -9 7 2 -9 7 -16 18 -15 23 1 14 -41 18 -49 5z"/>
<path d="M4353 683 c4 -3 2 -11 -3 -18 -7 -8 -6 -12 3 -12 7 0 14 9 14 19 1
10 -3 18 -9 18 -6 0 -8 -3 -5 -7z"/>
<path d="M1350 676 c0 -2 8 -10 18 -17 15 -13 16 -12 3 4 -13 16 -21 21 -21
13z"/>
<path d="M2230 670 c0 -5 9 -14 20 -20 11 -6 20 -9 20 -8 0 2 -9 11 -20 21
-11 9 -20 13 -20 7z"/>
<path d="M2760 660 c-6 -12 -17 -17 -28 -14 -14 5 -15 4 -2 -5 21 -15 25 -14
38 14 14 30 7 34 -8 5z"/>
<path d="M3673 665 c0 -8 4 -12 9 -9 5 3 6 10 3 15 -9 13 -12 11 -12 -6z"/>
<path d="M4310 669 c0 -5 -6 -7 -12 -3 -7 4 -9 3 -5 -1 13 -15 36 -14 30 1 -6
17 -13 18 -13 3z"/>
<path d="M1244 659 c-4 -7 -3 -9 4 -5 6 3 13 -2 15 -11 4 -16 5 -16 6 -1 1 21
-15 32 -25 17z"/>
<path d="M1313 655 c0 -8 4 -12 9 -9 5 3 6 10 3 15 -9 13 -12 11 -12 -6z"/>
<path d="M1655 661 c-3 -5 -2 -12 3 -15 5 -3 9 1 9 9 0 17 -3 19 -12 6z"/>
<path d="M1684 659 c-3 -6 1 -17 10 -25 9 -8 11 -9 6 -2 -14 16 -13 31 2 22 7
-4 8 -3 4 4 -9 15 -13 15 -22 1z"/>
<path d="M1738 656 c5 -11 17 -21 26 -22 9 -1 13 2 10 8 -3 5 -8 7 -12 4 -3
-3 -11 2 -19 12 -13 16 -14 16 -5 -2z"/>
<path d="M2550 660 c-12 -7 -10 -9 8 -7 12 0 22 5 22 9 0 11 -12 10 -30 -2z"/>
<path d="M2982 649 c-10 -16 -11 -24 -2 -33 8 -8 9 -6 4 8 -5 14 -4 17 5 12 6
-4 11 -4 10 1 -4 20 2 27 12 13 9 -12 10 -12 7 -1 -7 23 -22 23 -36 0z"/>
<path d="M3265 661 c-3 -6 -1 -19 5 -28 9 -16 10 -15 5 5 -7 24 11 31 18 7 4
-12 5 -11 3 1 -1 20 -21 30 -31 15z"/>
<path d="M3496 658 c5 -7 2 -9 -9 -5 -11 4 -14 2 -10 -9 4 -11 9 -12 19 -3 12
10 11 29 -2 29 -3 0 -2 -5 2 -12z"/>
<path d="M3553 648 c-1 -10 3 -18 9 -18 6 0 8 3 5 7 -4 3 -2 11 3 18 7 8 6 12
-3 12 -7 0 -14 -9 -14 -19z"/>
<path d="M3770 665 c0 -7 30 -13 34 -7 3 4 -4 9 -15 9 -10 1 -19 0 -19 -2z"/>
<path d="M4410 659 c0 -5 5 -7 10 -4 6 3 10 8 10 11 0 2 -4 4 -10 4 -5 0 -10
-5 -10 -11z"/>
<path d="M1286 643 c-6 -14 -5 -15 5 -6 7 7 10 15 7 18 -3 3 -9 -2 -12 -12z"/>
<path d="M1833 641 c2 -11 7 -24 12 -28 4 -5 5 -3 2 4 -4 6 -3 13 2 15 5 1 3
9 -5 16 -12 11 -13 9 -11 -7z"/>
<path d="M1892 640 c0 -14 2 -19 5 -12 2 6 2 18 0 25 -3 6 -5 1 -5 -13z"/>
<path d="M1913 645 c0 -8 4 -12 9 -9 5 3 6 10 3 15 -9 13 -12 11 -12 -6z"/>
<path d="M1975 651 c-3 -7 0 -8 9 -5 17 7 22 -11 6 -19 -6 -3 -5 -4 2 -3 16 3
17 28 1 33 -6 2 -14 -1 -18 -6z"/>
<path d="M2311 647 c-8 -10 -7 -14 4 -14 8 0 11 5 8 10 -4 6 1 8 11 4 10 -4
15 -3 11 3 -8 14 -20 12 -34 -3z"/>
<path d="M2586 645 c-9 -26 -7 -32 5 -12 6 10 9 21 6 23 -2 3 -7 -2 -11 -11z"/>
<path d="M2680 645 c0 -8 4 -15 10 -15 5 0 7 7 4 15 -4 8 -8 15 -10 15 -2 0
-4 -7 -4 -15z"/>
<path d="M2856 645 c4 -8 10 -15 15 -15 4 0 6 7 3 15 -4 8 -10 15 -15 15 -4 0
-6 -7 -3 -15z"/>
<path d="M2911 656 c2 -2 15 -9 29 -15 24 -11 24 -11 6 3 -16 13 -49 24 -35
12z"/>
<path d="M3053 644 c15 -8 25 -19 22 -24 -4 -6 -1 -10 4 -10 6 0 11 4 11 9 0
12 -40 41 -55 41 -5 -1 3 -8 18 -16z"/>
<path d="M3130 649 c0 -5 5 -7 10 -4 6 3 10 8 10 11 0 2 -4 4 -10 4 -5 0 -10
-5 -10 -11z"/>
<path d="M3158 642 c-5 -19 -4 -20 13 -11 10 5 19 12 19 15 0 3 -4 3 -9 0 -5
-4 -11 -1 -13 6 -3 7 -7 3 -10 -10z"/>
<path d="M3518 636 c-13 -18 -14 -23 -2 -23 8 0 12 3 9 5 -3 3 0 11 7 19 6 7
9 15 7 17 -2 2 -12 -6 -21 -18z"/>
<path d="M4234 646 c1 -8 5 -18 8 -22 4 -3 5 1 4 10 -1 8 -5 18 -8 22 -4 3 -5
-1 -4 -10z"/>
<path d="M1180 640 c0 -5 5 -10 10 -10 6 0 10 5 10 10 0 6 -4 10 -10 10 -5 0
-10 -4 -10 -10z"/>
<path d="M1546 638 c3 -5 10 -6 15 -3 13 9 11 12 -6 12 -8 0 -12 -4 -9 -9z"/>
<path d="M2110 640 c0 -5 5 -10 10 -10 6 0 10 5 10 10 0 6 -4 10 -10 10 -5 0
-10 -4 -10 -10z"/>
<path d="M2220 640 c8 -5 20 -10 25 -10 6 0 3 5 -5 10 -8 5 -19 10 -25 10 -5
0 -3 -5 5 -10z"/>
<path d="M2380 640 c-9 -6 -10 -10 -3 -10 6 0 15 5 18 10 8 12 4 12 -15 0z"/>
<path d="M2420 640 c35 -24 54 -31 30 -11 -14 11 -29 21 -35 21 -5 0 -3 -5 5
-10z"/>
<path d="M2451 645 c4 -3 19 -8 35 -11 16 -3 26 -2 23 1 -4 3 -19 8 -35 11
-16 3 -26 2 -23 -1z"/>
<path d="M2790 640 c8 -5 20 -10 25 -10 6 0 3 5 -5 10 -8 5 -19 10 -25 10 -5
0 -3 -5 5 -10z"/>
<path d="M3211 633 c0 -11 3 -13 6 -5 2 6 10 9 15 6 7 -4 8 -2 4 4 -11 18 -26
14 -25 -5z"/>
<path d="M3320 635 c-7 -9 -11 -17 -9 -20 3 -2 10 5 17 15 14 24 10 26 -8 5z"/>
<path d="M3387 630 c-3 -11 -3 -20 -1 -20 2 0 8 9 14 20 6 11 7 20 2 20 -6 0
-12 -9 -15 -20z"/>
<path d="M3960 640 c-9 -6 -10 -10 -3 -10 6 0 15 5 18 10 8 12 4 12 -15 0z"/>
<path d="M3990 639 c0 -5 5 -7 10 -4 6 3 10 8 10 11 0 2 -4 4 -10 4 -5 0 -10
-5 -10 -11z"/>
<path d="M4114 643 c2 -2 10 -5 18 -7 7 -1 19 -5 26 -10 7 -4 16 -5 19 -2 4 3
1 6 -6 6 -7 0 -10 3 -7 8 2 4 -9 8 -25 8 -17 1 -28 0 -25 -3z"/>
<path d="M2270 630 c-9 -6 -10 -10 -3 -10 6 0 15 5 18 10 8 12 4 12 -15 0z"/>
<path d="M1330 619 c0 -5 5 -7 10 -4 6 3 10 8 10 11 0 2 -4 4 -10 4 -5 0 -10
-5 -10 -11z"/>
<path d="M1366 618 c3 -5 10 -6 15 -3 13 9 11 12 -6 12 -8 0 -12 -4 -9 -9z"/>
<path d="M1475 619 c-3 -4 2 -6 10 -5 21 3 28 13 10 13 -9 0 -18 -4 -20 -8z"/>
<path d="M1727 619 c7 -7 15 -10 18 -7 3 3 -2 9 -12 12 -14 6 -15 5 -6 -5z"/>
<path d="M1921 621 c-9 -6 -10 -11 -2 -15 6 -4 11 -2 11 4 0 6 5 8 12 4 7 -4
8 -3 4 4 -8 14 -7 14 -25 3z"/>
<path d="M2015 621 c-3 -6 0 -8 8 -5 11 4 14 -2 12 -25 -1 -17 1 -29 5 -26 4
2 6 17 5 31 -1 29 -18 43 -30 25z"/>
<path d="M2080 608 c-10 -21 -10 -21 3 -6 8 10 18 14 22 10 5 -4 5 -1 1 6 -10
17 -14 15 -26 -10z"/>
<path d="M2199 628 c-6 -22 -5 -38 3 -38 6 0 7 7 4 16 -5 12 -2 15 9 10 9 -3
13 -2 10 4 -5 9 -24 14 -26 8z"/>
<path d="M2335 620 c-3 -6 1 -7 9 -4 18 7 21 14 7 14 -6 0 -13 -4 -16 -10z"/>
<path d="M2384 603 c-15 -24 -15 -26 -1 -14 14 11 20 11 35 0 13 -10 12 -8 -3
10 -18 22 -18 24 -2 18 11 -4 16 -3 12 3 -10 16 -22 11 -41 -17z"/>
<path d="M2588 608 c-10 -10 -14 -18 -9 -18 10 0 36 29 30 34 -2 1 -12 -6 -21
-16z"/>
<path d="M2710 620 c0 -5 5 -10 10 -10 6 0 10 5 10 10 0 6 -4 10 -10 10 -5 0
-10 -4 -10 -10z"/>
<path d="M2830 620 c0 -5 5 -10 10 -10 6 0 10 5 10 10 0 6 -4 10 -10 10 -5 0
-10 -4 -10 -10z"/>
<path d="M3193 612 c0 -12 5 -22 9 -22 11 0 10 12 -2 30 -7 12 -9 10 -7 -8z"/>
<path d="M3335 621 c-9 -15 15 -25 28 -12 9 9 7 10 -7 5 -13 -5 -17 -4 -12 4
4 7 5 12 2 12 -3 0 -7 -4 -11 -9z"/>
<path d="M3430 621 c0 -6 4 -12 8 -15 5 -3 9 1 9 9 0 8 -4 15 -9 15 -4 0 -8
-4 -8 -9z"/>
<path d="M3895 620 c-3 -5 -1 -10 4 -10 6 0 11 5 11 10 0 6 -2 10 -4 10 -3 0
-8 -4 -11 -10z"/>
<path d="M4068 623 c6 -2 18 -2 25 0 6 3 1 5 -13 5 -14 0 -19 -2 -12 -5z"/>
<path d="M4113 623 c4 -3 1 -13 -6 -22 -11 -14 -10 -14 5 -2 16 12 16 31 1 31
-4 0 -3 -3 0 -7z"/>
<path d="M4193 615 c0 -8 4 -12 9 -9 5 3 6 10 3 15 -9 13 -12 11 -12 -6z"/>
<path d="M4268 623 c7 -3 16 -2 19 1 4 3 -2 6 -13 5 -11 0 -14 -3 -6 -6z"/>
<path d="M4306 618 c3 -5 10 -6 15 -3 13 9 11 12 -6 12 -8 0 -12 -4 -9 -9z"/>
<path d="M4370 620 c0 -5 5 -10 11 -10 5 0 7 5 4 10 -3 6 -8 10 -11 10 -2 0
-4 -4 -4 -10z"/>
<path d="M1773 605 c0 -7 8 -10 19 -7 10 2 18 6 18 7 0 1 -8 5 -18 7 -11 3
-19 0 -19 -7z"/>
<path d="M2301 597 c-13 -21 -12 -21 5 -5 10 10 16 20 13 22 -3 3 -11 -5 -18
-17z"/>
<path d="M2510 616 c0 -2 7 -9 15 -16 13 -11 14 -10 9 4 -5 14 -24 23 -24 12z"/>
<path d="M2956 607 c3 -10 9 -15 12 -12 3 3 0 11 -7 18 -10 9 -11 8 -5 -6z"/>
<path d="M3550 616 c0 -2 8 -10 18 -17 15 -13 16 -12 3 4 -13 16 -21 21 -21
13z"/>
<path d="M1230 601 c0 -6 4 -13 10 -16 6 -3 7 1 4 9 -7 18 -14 21 -14 7z"/>
<path d="M1870 599 c0 -5 5 -7 10 -4 6 3 10 8 10 11 0 2 -4 4 -10 4 -5 0 -10
-5 -10 -11z"/>
<path d="M2133 593 c0 -9 4 -10 14 -2 7 6 13 12 13 14 0 1 -6 2 -13 2 -8 0
-14 -6 -14 -14z"/>
<path d="M2626 598 c3 -4 14 -6 24 -5 31 5 32 13 1 12 -16 0 -27 -3 -25 -7z"/>
<path d="M2760 600 c-12 -7 -10 -9 8 -7 12 0 22 5 22 9 0 11 -12 10 -30 -2z"/>
<path d="M2886 601 c3 -3 19 -6 35 -7 16 -1 27 1 24 4 -3 3 -19 6 -35 7 -16 1
-27 -1 -24 -4z"/>
<path d="M3043 598 c-11 -19 -13 -39 -1 -32 5 3 7 9 4 12 -3 3 -1 11 5 19 6 7
9 13 6 13 -3 0 -9 -6 -14 -12z"/>
<path d="M3126 602 c-3 -5 1 -9 9 -9 8 0 15 4 15 9 0 4 -4 8 -9 8 -6 0 -12 -4
-15 -8z"/>
<path d="M3966 598 c3 -5 10 -6 15 -3 13 9 11 12 -6 12 -8 0 -12 -4 -9 -9z"/>
<path d="M4266 602 c-3 -5 1 -9 9 -9 8 0 12 4 9 9 -3 4 -7 8 -9 8 -2 0 -6 -4
-9 -8z"/>
<path d="M2475 589 c-4 -6 -5 -12 -2 -15 2 -3 7 2 10 11 7 17 1 20 -8 4z"/>
<path d="M3455 591 c-3 -5 -2 -12 3 -15 5 -3 9 1 9 9 0 17 -3 19 -12 6z"/>
<path d="M1052 578 c-15 -15 -15 -28 -1 -28 5 0 8 4 5 9 -4 5 0 11 6 14 7 2
10 7 7 10 -3 4 -11 1 -17 -5z"/>
<path d="M1088 583 c10 -4 9 -10 -5 -27 l-18 -21 22 19 c23 19 22 37 0 35 -8
0 -8 -2 1 -6z"/>
<path d="M1800 580 c-9 -6 -10 -10 -3 -10 6 0 15 5 18 10 8 12 4 12 -15 0z"/>
<path d="M3230 578 c0 -4 4 -8 9 -8 6 0 12 4 15 8 3 5 -1 9 -9 9 -8 0 -15 -4
-15 -9z"/>
<path d="M4005 580 c-3 -6 1 -7 9 -4 18 7 21 14 7 14 -6 0 -13 -4 -16 -10z"/>
<path d="M2535 560 c2 -27 10 -33 12 -10 1 11 -2 22 -6 24 -4 3 -7 -4 -6 -14z"/>
<path d="M2733 565 c0 -8 4 -12 9 -9 5 3 6 10 3 15 -9 13 -12 11 -12 -6z"/>
<path d="M2769 563 c-13 -16 -12 -17 4 -4 16 13 21 21 13 21 -2 0 -10 -8 -17
-17z"/>
<path d="M1995 561 c-3 -5 -2 -12 3 -15 5 -3 9 1 9 9 0 17 -3 19 -12 6z"/>
<path d="M2376 553 c-6 -14 -5 -15 5 -6 7 7 10 15 7 18 -3 3 -9 -2 -12 -12z"/>
<path d="M2413 551 c0 -11 5 -18 9 -15 4 3 5 11 1 19 -7 21 -12 19 -10 -4z"/>
<path d="M2890 559 c0 -5 5 -7 10 -4 6 3 10 8 10 11 0 2 -4 4 -10 4 -5 0 -10
-5 -10 -11z"/>
<path d="M3375 560 c3 -5 8 -10 11 -10 2 0 4 5 4 10 0 6 -5 10 -11 10 -5 0 -7
-4 -4 -10z"/>
<path d="M4126 562 c-3 -5 1 -9 9 -9 8 0 12 4 9 9 -3 4 -7 8 -9 8 -2 0 -6 -4
-9 -8z"/>
<path d="M2026 542 c-3 -5 1 -9 9 -9 8 0 12 4 9 9 -3 4 -7 8 -9 8 -2 0 -6 -4
-9 -8z"/>
<path d="M2190 540 c0 -5 5 -10 11 -10 5 0 7 5 4 10 -3 6 -8 10 -11 10 -2 0
-4 -4 -4 -10z"/>
<path d="M2615 541 c-3 -5 -2 -12 3 -15 5 -3 9 1 9 9 0 17 -3 19 -12 6z"/>
<path d="M3155 540 c3 -5 8 -10 11 -10 2 0 4 5 4 10 0 6 -5 10 -11 10 -5 0 -7
-4 -4 -10z"/>
<path d="M3210 545 c0 -7 30 -13 34 -7 3 4 -4 9 -15 9 -10 1 -19 0 -19 -2z"/>
<path d="M1010 526 c0 -8 4 -17 9 -20 5 -4 7 3 4 14 -6 23 -13 26 -13 6z"/>
<path d="M1096 527 c3 -10 9 -15 12 -12 3 3 0 11 -7 18 -10 9 -11 8 -5 -6z"/>
<path d="M842 510 c7 -10 14 -18 15 -16 6 6 -9 36 -18 36 -5 0 -4 -9 3 -20z"/>
<path d="M1130 519 c0 -5 5 -7 10 -4 6 3 10 8 10 11 0 2 -4 4 -10 4 -5 0 -10
-5 -10 -11z"/>
<path d="M2380 526 c0 -2 8 -10 18 -17 15 -13 16 -12 3 4 -13 16 -21 21 -21
13z"/>
<path d="M866 484 c-4 -9 -4 -19 -1 -22 3 -3 5 0 5 7 0 7 4 9 10 6 6 -3 7 1 4
9 -8 20 -10 20 -18 0z"/>
<path d="M817 476 c-3 -8 -3 -17 0 -20 10 -10 33 -7 33 4 0 5 -8 6 -17 3 -16
-6 -16 -5 -4 10 7 9 9 17 3 17 -5 0 -12 -6 -15 -14z"/>
<path d="M935 480 c-3 -6 1 -7 9 -4 18 7 21 14 7 14 -6 0 -13 -4 -16 -10z"/>
<path d="M993 475 c0 -8 4 -12 9 -9 4 3 8 9 8 15 0 5 -4 9 -8 9 -5 0 -9 -7 -9
-15z"/>
<path d="M910 460 c0 -5 5 -10 11 -10 5 0 7 5 4 10 -3 6 -8 10 -11 10 -2 0 -4
-4 -4 -10z"/>
<path d="M946 461 c-4 -5 3 -7 14 -4 23 6 26 13 6 13 -8 0 -17 -4 -20 -9z"/>
<path d="M715 430 c0 -16 3 -31 6 -34 3 -3 5 7 5 23 -1 16 -3 32 -6 35 -3 3
-5 -8 -5 -24z"/>
<path d="M754 452 c4 -7 2 -21 -5 -30 -12 -15 -11 -15 6 0 16 15 17 20 6 30
-11 11 -13 10 -7 0z"/>
<path d="M1006 438 c3 -5 10 -6 15 -3 13 9 11 12 -6 12 -8 0 -12 -4 -9 -9z"/>
<path d="M799 428 c-7 -23 -4 -35 7 -35 10 0 11 4 3 13 -7 8 -6 14 3 17 10 4
10 6 1 6 -7 1 -13 0 -14 -1z"/>
<path d="M840 420 c8 -5 20 -10 25 -10 6 0 3 5 -5 10 -8 5 -19 10 -25 10 -5 0
-3 -5 5 -10z"/>
<path d="M910 416 c7 -7 13 -7 20 0 6 6 3 10 -10 10 -13 0 -16 -4 -10 -10z"/>
<path d="M760 400 c-9 -6 -10 -10 -3 -10 6 0 15 5 18 10 8 12 4 12 -15 0z"/>
<path d="M990 399 c0 -5 5 -7 10 -4 6 3 10 8 10 11 0 2 -4 4 -10 4 -5 0 -10
-5 -10 -11z"/>
<path d="M749 363 c-13 -16 -12 -17 4 -4 9 7 17 15 17 17 0 8 -8 3 -21 -13z"/>
</g>
</svg>
